<svg class="svg-icon" style="width: 1em; height: 1em;vertical-align: middle;fill: currentColor;overflow: hidden;" viewBox="0 0 1024 1024" version="1.1" xmlns="http://www.w3.org/2000/svg"><path d="M744.476845 838.567404h-61.810865v92.716298l92.716298 92.716298h61.810865z" fill="#ADF5FF" /><path d="M279.523155 838.567404l-92.716298 185.432596h588.575421l-92.716298-185.432596z" fill="#D6FAFF" /><path d="M620.857175 247.243461h-61.810865l61.810865 345.133328c0 17.059799 13.82503 29.875252 30.905433 29.875251 17.059799 0 30.905433-12.815453 30.905432-29.875251V309.054326c0-33.995976-27.814889-61.810865-61.810865-61.810865z" fill="#2275FF" /><path d="M403.144885 247.243461h61.810866l-61.810866 344.103147c0 17.059799-13.845634 30.905433-30.905432 30.905432s-30.905433-13.845634-30.905433-30.905432V309.054326c0-33.995976 27.814889-61.810865 61.810865-61.810865z" fill="#10BEFF" /><path d="M620.857175 309.054326c0-33.995976-27.814889-61.810865-61.810865-61.810865h-94.090559c-33.995976 0-61.810865 27.814889-61.810866 61.810865v583.255565c0 21.524604 17.449207 38.973811 38.975872 38.973811 21.524604 0 38.975871-17.449207 38.975871-38.973811V591.346608h61.810865v300.963283c0 21.524604 17.449207 38.973811 38.975871 38.973811 21.524604 0 38.973811-17.449207 38.973811-38.973811V309.054326z" fill="#199AFF" /><path d="M512.677859 0v185.432596c51.206181 0 92.716298-41.510117 92.716298-92.716298s-41.510117-92.716298-92.716298-92.716298z" fill="#2275FF" /><path d="M543.583292 92.716298c0-51.206181-13.837392-92.716298-30.905433-92.716298-51.206181 0-92.716298 41.510117-92.716298 92.716298s41.510117 92.716298 92.716298 92.716298c17.070101 0 30.905433-41.510117 30.905433-92.716298z" fill="#199AFF" /></svg>