<svg class="svg-icon" style="width: 1em; height: 1em;vertical-align: middle;fill: currentColor;overflow: hidden;" viewBox="0 0 1024 1024" version="1.1" xmlns="http://www.w3.org/2000/svg"><path d="M818.346667 686.449778l60.330666 60.359111-189.041777 189.041778-60.359112-60.302223zM765.155556 625.777778l59.733333-59.733334c-76.8-85.333333-190.577778-139.377778-312.888889-139.377777-236.088889 0-426.666667 190.577778-426.666667 426.666666h85.333334c0-187.733333 153.6-341.333333 341.333333-341.333333 99.555556 0 190.577778 42.666667 253.155556 113.777778zM628.622222 876.088889L625.777778 938.666667l62.577778-2.844445zM877.112889 625.976889l60.330667 60.330667-40.220445 40.248888-60.330667-60.359111zM426.666667 853.333333H85.333333v85.333334h341.333334v-85.333334z" fill="#0088FF" /><path d="M392.533333 443.733333c36.977778-11.377778 76.8-17.066667 119.466667-17.066666s82.488889 5.688889 119.466667 17.066666c48.355556-36.977778 79.644444-93.866667 79.644444-159.288889 0-110.933333-88.177778-199.111111-199.111111-199.111111s-199.111111 88.177778-199.111111 199.111111c0 65.422222 31.288889 122.311111 79.644444 159.288889zM512 170.666667c62.577778 0 113.777778 51.2 113.777778 113.777777s-51.2 113.777778-113.777778 113.777778-113.777778-51.2-113.777778-113.777778 51.2-113.777778 113.777778-113.777777z" fill="#0088FF" /></svg>