<svg class="svg-icon" style="width: 1em;height: 1em;vertical-align: middle;fill: currentColor;overflow: hidden;" viewBox="0 0 1024 1024" version="1.1" xmlns="http://www.w3.org/2000/svg"><path d="M911.8208 883.968H124.0064c-25.3952 0-46.08-20.6848-46.08-46.08V216.6784c0-25.3952 20.6848-46.08 46.08-46.08h787.8144c25.3952 0 46.08 20.6848 46.08 46.08v621.2096c0 25.3952-20.6336 46.08-46.08 46.08z m-782.6944-51.2h777.5744V221.7984H129.1264v610.9696z" fill="#5B90EF" /><path d="M387.1744 507.3408c-75.264 0-136.2944 61.0304-136.2944 136.2944v67.6352h272.5376v-67.6352c0.0512-75.264-60.9792-136.2944-136.2432-136.2944z" fill="#DCEDFF" /><path d="M387.1744 417.1264m-90.4192 0a90.4192 90.4192 0 1 0 180.8384 0 90.4192 90.4192 0 1 0-180.8384 0Z" fill="#DCEDFF" /><path d="M465.9712 502.272c22.8864-21.1968 37.2736-51.5072 37.2736-85.0944 0-64-52.0704-116.0192-116.0192-116.0192-64 0-116.0192 52.0704-116.0192 116.0192 0 33.5872 14.3872 63.8976 37.2736 85.0944-49.5616 27.6992-83.1488 80.6912-83.1488 141.3632v67.6352c0 14.1312 11.4688 25.6 25.6 25.6h272.5376c14.1312 0 25.6-11.4688 25.6-25.6v-67.6352c0-60.7232-33.5872-113.664-83.0976-141.3632zM322.3552 417.1264c0-35.7376 29.0816-64.8192 64.8192-64.8192s64.8192 29.0816 64.8192 64.8192c0 34.7136-27.392 63.0272-61.696 64.6656-1.024 0-2.0992-0.1024-3.1232-0.1024s-2.0992 0.0512-3.1232 0.1024c-34.2528-1.6384-61.696-29.952-61.696-64.6656z m175.5136 268.544H276.5312v-42.0352c0-59.4944 47.1552-108.1344 106.0352-110.5408 1.536 0.0512 3.072 0.1024 4.608 0.1024s3.072-0.0512 4.608-0.1024c58.88 2.4576 106.0352 51.0976 106.0352 110.5408v42.0352zM606.8224 349.3888h179.4048v51.2h-179.4048zM635.2384 497.408h150.9888v51.2h-150.9888zM658.7904 645.4784h127.4368v51.2h-127.4368z" fill="#5B90EF" /></svg>