<svg class="svg-icon" style="width: 1em;height: 1em;vertical-align: middle;fill: currentColor;overflow: hidden;" viewBox="0 0 1024 1024" version="1.1" xmlns="http://www.w3.org/2000/svg"><path d="M113.5104 136.1408h234.5984v749.4656H113.5104z" fill="#DCEDFF" /><path d="M569.8048 919.9616h-443.392c-25.3952 0-46.08-20.6848-46.08-46.08V152.064c0-25.3952 20.6848-46.08 46.08-46.08h443.392c25.3952 0 46.08 20.6848 46.08 46.08v189.3376h-51.2V157.184h-433.152v711.5776h433.152v-168.4992h51.2v173.6192c0 25.3952-20.6848 46.08-46.08 46.08z" fill="#5B90EF" /><path d="M936.4992 495.2064l-160.4608-166.3488-36.864 35.5328 118.6304 122.9824H348.1088v51.2h511.5904l-120.8832 131.2256 37.6832 34.7136L936.96 530.3296c9.1136-9.984 8.96-25.3952-0.4608-35.1232z" fill="#5B90EF" /></svg>