<svg class="svg-icon" style="width: 1em;height: 1em;vertical-align: middle;fill: currentColor;overflow: hidden;" viewBox="0 0 1024 1024" version="1.1" xmlns="http://www.w3.org/2000/svg"><path d="M97.1264 588.6976H939.008v281.9072H97.1264z" fill="#DCEDFF" /><path d="M267.0592 473.7536h440.5248v51.2H267.0592zM267.0592 650.24h290.2016v51.2H267.0592z" fill="#5B90EF" /><path d="M918.528 260.2496h-260.864L580.1472 113.664c-9.8304-18.5344-28.2112-29.952-49.2032-30.5152-21.0944-0.3584-39.936 9.8816-50.688 27.904L391.1168 260.2496H117.6064c-25.3952 0-46.08 20.6848-46.08 46.08v543.7952c0 25.3952 20.6848 46.08 46.08 46.08H918.528c25.3952 0 46.08-20.6848 46.08-46.08V306.3296c0-25.3952-20.6848-46.08-46.08-46.08z m-394.3424-122.88c1.536-2.56 3.6864-3.072 5.4272-2.9696 1.6384 0.0512 3.8912 0.6656 5.2736 3.2768l64.8704 122.624h-148.992l73.4208-122.9312z m389.2224 707.6352H122.7264V311.4496H913.408v533.5552z" fill="#5B90EF" /></svg>