<svg class="svg-icon" style="width: 1em;height: 1em;vertical-align: middle;fill: currentColor;overflow: hidden;" viewBox="0 0 1024 1024" version="1.1" xmlns="http://www.w3.org/2000/svg"><path d="M171.7248 571.4432H861.696v342.4768H171.7248z" fill="#DCEDFF" /><path d="M841.216 158.8736h-138.9056v-74.752h-51.2v74.752H370.944v-74.752h-51.2v74.752H182.784c-25.3952 0-46.08 20.6848-46.08 46.08V893.44c0 25.3952 20.6848 46.08 46.08 46.08h658.432c25.3952 0 46.08-20.6848 46.08-46.08V204.9536c0-25.3952-20.6848-46.08-46.08-46.08z m-5.12 729.4464H187.904V210.0736h131.7888v42.7008h51.2v-42.7008h280.1664v42.7008h51.2v-42.7008h133.7856V888.32z" fill="#5B90EF" /><path d="M303.1552 382.1056h419.6352v51.2H303.1552zM303.1552 545.8432h419.6352v51.2H303.1552zM303.1552 705.6384h220.9792v51.2H303.1552z" fill="#5B90EF" /></svg>