<svg class="svg-icon" style="width: 1em;height: 1em;vertical-align: middle;fill: currentColor;overflow: hidden;" viewBox="0 0 1024 1024" version="1.1" xmlns="http://www.w3.org/2000/svg"><path d="M576 64h-128l1.536 110.336a343.136 343.136 0 0 0-132.192 54.624l-70.4-70.4-88.384 88.384 70.4 70.4a341.568 341.568 0 0 0-54.624 132.16L64 448v128l110.336-1.536a343.136 343.136 0 0 0 54.624 132.192l-70.4 70.4 88.384 88.384 70.4-70.4a341.056 341.056 0 0 0 132.192 54.656L448 960h128l-1.536-110.336a342.688 342.688 0 0 0 132.192-54.656l70.4 70.4 88.384-88.384-70.4-70.4a341.696 341.696 0 0 0 54.624-132.192L960 576v-128l-110.336 1.408a342.784 342.784 0 0 0-54.624-132.16l70.4-70.4-88.384-88.384-70.4 70.4a341.696 341.696 0 0 0-132.192-54.624V74.688z m-64 672.768A224.832 224.832 0 1 1 736.768 512 225.12 225.12 0 0 1 512 736.768z m0 0" fill="#0590DF" /></svg>