<svg id="svg277" xmlns="http://www.w3.org/2000/svg" xmlns:xlink="http://www.w3.org/1999/xlink" viewBox="0 0 617.99 604.01"><defs><style>.cls-1{isolation:isolate;}.cls-2,.cls-3,.cls-4{fill:none;}.cls-2{stroke:#fff;stroke-width:3px;}.cls-19,.cls-22,.cls-3,.cls-4{stroke:#000;}.cls-3{stroke-miterlimit:10;}.cls-4{stroke-width:0.5px;}.cls-5{fill:#fc0;}.cls-6{fill:#f5cd62;}.cls-19,.cls-20,.cls-21,.cls-7{fill:#fff;}.cls-8{fill:#ef2f3e;}.cls-9{fill:#bdebfb;}.cls-10{fill:#00a656;}.cls-11{fill:#a4dcb5;}.cls-12{fill:#42b573;}.cls-13{fill:#fff588;}.cls-14{fill:#729d46;}.cls-15{fill:#0098d8;}.cls-16{fill:#dc9822;}.cls-17{fill:#8a0000;}.cls-18{fill:#b15b45;}.cls-20{stroke:url(#linear-gradient);}.cls-21{stroke:url(#linear-gradient-2);}.cls-22{fill:#1e3fa0;stroke-width:1.8px;}</style><linearGradient id="linear-gradient" x1="1266.47" y1="701.33" x2="1317.47" y2="701.33" gradientTransform="translate(-870.07 -490.73) scale(1 0.98)" gradientUnits="userSpaceOnUse"><stop offset="0"/><stop offset="1"/></linearGradient><linearGradient id="linear-gradient-2" x1="1126.38" y1="702.92" x2="1177.38" y2="702.92" gradientTransform="translate(-971.18 -489.59) scale(1 0.98)" xlink:href="#linear-gradient"/></defs><g id="path57"><image class="cls-1" width="619" height="605" xlink:href="../3A1C3A1C.png"/></g><path id="path65" class="cls-2" d="M53.33,461.68H541.07V545H53.33Z" transform="translate(11.32 8.01)"/><g id="g237"><path id="path67" class="cls-3" d="M233.1,198.4a9.1,9.1,0,1,1-9.1-9.1A9.13,9.13,0,0,1,233.1,198.4Z" transform="translate(11.32 8.01)"/><path id="path69" class="cls-3" d="M246.4,204.3a9.1,9.1,0,1,1-18.2,0h0a9.1,9.1,0,1,1,18.2,0Z" transform="translate(11.32 8.01)"/><path id="path71" class="cls-3" d="M254.3,214.8a9.1,9.1,0,1,1-18.2,0h0a9.1,9.1,0,1,1,18.2,0Z" transform="translate(11.32 8.01)"/><path id="path73" class="cls-3" d="M268.6,221.5a9.1,9.1,0,1,1-9.1-9.1A9.13,9.13,0,0,1,268.6,221.5Z" transform="translate(11.32 8.01)"/><path id="path75" class="cls-3" d="M282.9,230.7a9.1,9.1,0,0,1-18.2,0h0a9.1,9.1,0,1,1,18.2,0Z" transform="translate(11.32 8.01)"/><path id="path77" class="cls-3" d="M293.6,239.2a9.1,9.1,0,1,1-9.1-9.1A9.13,9.13,0,0,1,293.6,239.2Z" transform="translate(11.32 8.01)"/><path id="path79" class="cls-3" d="M301.4,248.9a9.1,9.1,0,1,1-9.1-9.1A9.13,9.13,0,0,1,301.4,248.9Z" transform="translate(11.32 8.01)"/><path id="path81" class="cls-3" d="M308.1,259.8a9.1,9.1,0,1,1-18.2,0h0a9.1,9.1,0,1,1,18.2,0ZM140,367.6a9.1,9.1,0,1,1-9.1-9.1A9.13,9.13,0,0,1,140,367.6Z" transform="translate(11.32 8.01)"/><path id="path83" class="cls-3" d="M155,374.9a9.1,9.1,0,1,1-9.1-9.1A9.13,9.13,0,0,1,155,374.9Z" transform="translate(11.32 8.01)"/><path id="path85" class="cls-3" d="M171.1,377.2a9.1,9.1,0,0,1-18.2,0h0a9.1,9.1,0,0,1,18.2,0Z" transform="translate(11.32 8.01)"/><path id="path87" class="cls-4" d="M188.5,379.5a9.1,9.1,0,1,1-9.1-9.1A9.13,9.13,0,0,1,188.5,379.5Z" transform="translate(11.32 8.01)"/><path id="path89" class="cls-3" d="M206.1,380.7a9.1,9.1,0,1,1-9.1-9.1A9.13,9.13,0,0,1,206.1,380.7Zm18.6-.3a9.1,9.1,0,1,1-9.1-9.1A9.13,9.13,0,0,1,224.7,380.4Z" transform="translate(11.32 8.01)"/><path id="path91" class="cls-3" d="M240.3,380a9.1,9.1,0,1,1-9.1-9.1A9.13,9.13,0,0,1,240.3,380Z" transform="translate(11.32 8.01)"/><path id="path93" class="cls-3" d="M255.8,377.9a9.1,9.1,0,0,1-18.2,0h0a9.1,9.1,0,0,1,18.2,0Z" transform="translate(11.32 8.01)"/><path id="path95" class="cls-3" d="M269.2,368.7a9.1,9.1,0,1,1-9.1-9.1A9.13,9.13,0,0,1,269.2,368.7Z" transform="translate(11.32 8.01)"/><path id="path97" class="cls-3" d="M283.4,359.7a9.1,9.1,0,1,1-18.2,0h0a9.1,9.1,0,1,1,18.2,0Z" transform="translate(11.32 8.01)"/><path id="path99" class="cls-3" d="M292.7,348a7.9,7.9,0,1,1-15.8,0h0a7.9,7.9,0,1,1,15.8,0Z" transform="translate(11.32 8.01)"/><path id="path101" class="cls-3" d="M298.8,339a7.6,7.6,0,1,1-7.6-7.6,7.6,7.6,0,0,1,7.6,7.6Z" transform="translate(11.32 8.01)"/><path id="path103" class="cls-3" d="M308.8,272.5a9.1,9.1,0,1,1-9.1-9.1A9.13,9.13,0,0,1,308.8,272.5Z" transform="translate(11.32 8.01)"/><path id="path105" class="cls-3" d="M305.9,327.6a7.55,7.55,0,1,1-15.1.1h0a7.55,7.55,0,0,1,15.1-.1Z" transform="translate(11.32 8.01)"/><path id="path107" class="cls-3" d="M308.2,313.9a7.55,7.55,0,1,1-15.1.1h0a7.51,7.51,0,0,1,7.6-7.5A7.41,7.41,0,0,1,308.2,313.9Z" transform="translate(11.32 8.01)"/><path id="path109" class="cls-3" d="M309,301.6a7.6,7.6,0,1,1-7.6-7.6,7.6,7.6,0,0,1,7.6,7.6Z" transform="translate(11.32 8.01)"/><path id="path111" d="M386.8,55.3c-9.2,11.9-18.6,23.4-27.7,35.7,12.5-3.1,23.8-15.3,25.6-26.9h.4c.6-3,1.6-5.5,1.7-8.8Zm-97.6,61c-.2,2-1.6,3.4-1.3,5.5-.8,1.1-.5,2.6-1.6,3.7-1.5,1.3-2.6.5-4.2,0a2.48,2.48,0,0,0-.5,2.5l3.4.5c3,.8,3.3,3.3,3.9,5.9.7,2.2-3.6,3.8-.6,5.5,1.6-5.7,2.8-11.7,4.2-17.6,1.9-3.1-2.1-4.2-3.3-6Zm23.9-.3-3.4,3.8c1.2,6.8,2.9,13.1,4.4,20,2.8-.9-.4-2.6-.1-4.2-1.1-1.7.4-3.1.6-4.7,1.3-2.4,3.8-2.9,6.3-3.1a20.08,20.08,0,0,0-.1-2.5c-1.2.4-2.1,1.2-3.6.8-2.4-.7-1.6-3.5-2.7-4.8C315,119.3,313.5,117.8,313.1,116Zm43.3-21.5c-8,10.7-16.9,21.4-24.9,32.5,2.4.3,5.5-.7,7,1.5-.4-1.3-1.3-2.4-1.6-3.7a35,35,0,0,1,11.4-8.7c3.5-.7,7.8-4.5,11-.6l11.4,17.1c.4,1.5-.6,2.9-1.2,4.2-2.3,3.3-6.1-.6-8,2.8,1.2,1.9,3.2,3.1,3.4,5.2a128.47,128.47,0,0,1-16.1,10.7c8.8-1.6,17.8-7.6,21-16.4.6-1.1.5-2.1,1-3.3,1.7-13.2-1.9-23.5-8-34.1-2.1-2.2-3.5-5.6-6.4-7.2Zm-110.8,0-1,.6c-10.2,11.7-16.5,28.3-12.2,44.3,3.2,8.4,11.3,14.1,20.2,16.1l.4-.3c-5.6-3.2-10.9-6.2-15.6-10.4.1-1.6,1.7-2.7,2.5-3.8,1-.9.6-1.8-.5-2.4-2.5-.4-4.7.3-6.6-1.8a6.57,6.57,0,0,1-1-4.4l10.7-15.9c.8-1.1,2.2-2.7,3.9-2.5a30.34,30.34,0,0,1,19.1,11.2l-1.5,3.4c1.4-2.3,4.7-1.1,6.9-1.7-8.8-11.3-16.5-21.4-25.3-32.4ZM224.8,58.2c1.6,2,2.8,3.8,4.4,5.7l44,56.7V119c2.5-1.8-.4-5.7,2.5-7.3-.5-1.8.8-3.5.8-5-3.4.6-8.1,0-10.9-2.5-.4-1.2.7-2.2,1-3.2a18.07,18.07,0,0,1-7.4-2c-2.8-.9.4-2.5.4-4a13.88,13.88,0,0,1-8.2-4.4c.2-1.2,1.6-2.3,1.7-3-3.1-.9-6.5-2.9-8.1-5.7l2.5-2.5a13.88,13.88,0,0,1-7.4-5.9c-.2-1.6,2-2.1,3-3.1a2.13,2.13,0,0,0-1.2-.7c-2.1-1.3-5-4.1-5.1-6.7l6.8-4.2c-7-.3-12.2-.6-18.8-.6Zm152.3.3v-.7l-18.6.7c2.3,1.7,5.2,2.7,6.9,4.8-1.6,3.2-3.7,4.9-6.4,6.7,1.1,1,3,1.5,3.2,3.1a16.37,16.37,0,0,1-7.5,6c.7,1.2,2.5,1.3,2.4,3a16.25,16.25,0,0,1-8.2,5.4c.6,1,1.8,1.7,1.9,2.9a15.44,15.44,0,0,1-8.3,4.5c.5.9,1.4,1.7,1.6,2.8a13.08,13.08,0,0,1-8.5,3.1l1.2,2.7c-2.5,3.5-7.2,3.3-11.2,3.2.6,1.5,1.3,3,.8,4.7l1.6,2.5c-.9,2.9,1.6,3.9,1.2,6.5-.2,1.2-1.8,1.3-1.9,2.4,5.2-5.4,9.6-12.8,14.8-18.4l-.1-.1,23.7-30.8,11.4-15Zm-161.8-3c.6,2.1.2,4.5,1.2,6.4,2,13.5,13.1,25.6,26.5,29.1-8.8-11.8-18.8-24-27.7-35.5Zm94.2-24.8c3.5,9.6,3.2,20.6,8.1,29.5,5-8.1,7.9-13.6,11.9-20.4a22.8,22.8,0,0,1,13.8-8.4s92.1-4,101.2-3.5c.4,3.4-6.4,8.4-10.7,8.7-1.5,3.4-7.4,6.1-10.5,6.7-1.5,3-3.3,4-5.2,4.2l-10.5.5c-1.4,4-7.1,3.5-8.1,7-1.8,1-.6,2.6-3,2.7a47.48,47.48,0,0,1,8.7,9.6c48.6,69.3-21.5,101.4-38.3,98.1-10.3-1.3-14.7-3.5-22.4-7.7-10.8,4.4-22.9,8.4-35.1,9.2l-.4.3L321.2,183a3.16,3.16,0,0,1-.8,2.6,3.08,3.08,0,0,1-3.3.8c-5.4-6.2-10-12.7-15-19h-1.9c-5.4,6.7-9.5,12.8-15.2,19a3.56,3.56,0,0,1-3.7-1.8v-1.8c4-5.4,8.3-10.5,12.1-15.8a111.89,111.89,0,0,1-35.2-9.4c-11.3,3.6-12.7,4.7-20.5,5.5-35.4,3.8-85.7-29.1-44.1-91.7,0,0,8.6-10.5,8.6-10.6l2.6-3.7c-.8-3.2-2.7-1.8-3.6-4.1-2.9-.6-4.9-2.9-6.6-5-5.3-.6-13.8,1-16.3-5.5a10.16,10.16,0,0,1-9.7-5.4c-3.2-.9-7-1.7-9-4.9.1-2.1-1.7-2.5.2-4.2l99.1,3.4c15.3,2,17.9,18.8,25.7,28.8,2-2.9,2.9-6.4,4.2-9.6.8-3.8,1.2-7.9-1.1-11.2-1.1-1.3-2.8-2.7-4.9-2.4-1.4.4-3-.3-4.2,1-.8.3-.5,1.5-1.3,1.4-.9-1.5.2-2.9.4-4.4,1.2-2.7,3.5-5.7,6.8-6l4,.4c1-3.1,4.3-4.2,7-4.9,5.1.7,10.8,1.5,14,6.2Z" transform="translate(11.32 8.01)"/><path id="path113" class="cls-5" d="M296.6,26.5c-.7,0-1.5.1-2.2.1-2.5.6-3.6,3.1-4.2,5.3-1.9-.8-4-1.5-6-.9-2.1.4-3.5,2.2-4.5,4a13.62,13.62,0,0,1,12.5,3.1c-.8,0-1.6-.1-2.3-.1a21.75,21.75,0,0,1,.1,18c2.4.5,4.9.7,7.1,1.9,2.2,1.7,3,4.5,4.3,6.9,1.1-2.5,2.1-5.1,4.1-7,2.1-1.3,4.7-1.6,7.1-1.9-.9-4.9-1.9-9.8-2.8-14.7a40.83,40.83,0,0,0-1.9-8.4,3.84,3.84,0,0,0-2.2-2.3,5.79,5.79,0,0,0-2.1.7V31c.5-.5,1.5-.7,1.5-1.6a3.4,3.4,0,0,0-2-1.9,20.09,20.09,0,0,0-6.5-1ZM159.9,29.4a5.63,5.63,0,0,0,4,3.9c2.5.9,5.3.8,7.9.8,4.6.4,9.2.3,13.8.4,4.4.4,8.8.3,13.3.5,4.1.4,8.3.3,12.4.4,4.4.4,8.9.2,13.3.4,1.2.1,2.5.1,3.3,1.1,1.5,1.6,2,4,3.4,5.7,4.9,6.3,14,7.2,18.7,13.7,1,1.1.4,2.9,1.6,3.8,1.1.7,2.4,1.1,3.2,2.2,1.2,1.7.4,4,1.6,5.7.8,1.2,2.5,1.1,3.5,2,.5,1.5-.2,3.3.6,4.8.5,1.5,2.5,1.4,2.9,2.9.5,2.2,1.6,4.8,4,5.6,1.9.5,1.8,2.9,3.4,3.7a7.69,7.69,0,0,0,4,.6c-1-9.2-1.7-8.7-2.7-16.6,2.3-1.5,4.3-3.3,6.4-4.9-4.4-6.8-8.7-13.7-13.1-20.4-4.8-7-12.4-12.4-21.1-13.3-5.1-.2-10.1-.6-15.2-.6-4.6-.5-9.2-.3-13.8-.7-18.4-.5-36.9-1.1-55.4-1.7Zm282.9,0a59.53,59.53,0,0,0-7.3.4c-11.8.2-23.6.9-35.3,1.1-4.9.5-9.7.1-14.6.6-3.2.1-6.5.1-9.7.3-3.8.4-7.7.2-11.5.5-2.6.3-5.2,0-7.8.5-6.4,1-12.2,4.7-16.5,9.4a55.16,55.16,0,0,0-5.6,7.8c-3.5,5.4-6.9,10.9-10.4,16.3,2.2,1.6,4.2,3.6,6.5,5-1.2,7.6-1.6,8.1-2.8,16.6,1.3,0,2.8.2,4-.6s1.5-2.3,2.5-3.3c1-.6,2.1-.9,2.8-1.8a8.23,8.23,0,0,0,2-4.2c.3-1.5,2.3-1.4,2.8-2.7.8-1.6.5-3.4.7-5.1,1.1-.6,2.5-.9,3.4-1.7,1.3-1.7.4-3.9,1.6-5.7.7-1.4,2.5-1.7,3.6-2.7.8-1.2.4-2.9,1.6-4,4.5-5.8,12.5-7,17.4-12.2a22.19,22.19,0,0,0,3.4-5.2c.6-1.2,1.6-2.5,3.1-2.5,4.6-.4,9.2-.2,13.8-.6,4.4-.2,8.9-.1,13.3-.4,4.6-.2,9.1-.2,13.7-.5,6,0,12-.4,18-.6,3-.5,6.4-1.7,7.3-4.7ZM302.6,31.9a11.05,11.05,0,0,1-3.7,2.7c-1.9,1-3.2-1.4-5.1-1.2C296.5,31.8,299.8,33.3,302.6,31.9Zm-47.8,1.3a12.25,12.25,0,0,0-1.9.2,35.32,35.32,0,0,1,11,8.5c2.1,2.7,6.8,10,8.7,13,2.3,3.6,4.5,7.2,6.9,10.7,1.5-1.1,3-2.2,4.5-3.4-2.6-1.9-4.2-4.8-5.4-7.6-1-2-2.5-5-2.5-5.1-2.3-4.7-4.9-9.5-9.3-12.6A19.83,19.83,0,0,0,254.8,33.2Zm92.4.1a20.9,20.9,0,0,0-2.5.1A19.5,19.5,0,0,0,331.6,41c-3.5,4.5-5.8,9.9-8.2,15.1-1.2,2.3-2.5,4.6-4.8,6.1,1.5,1.1,3,2.3,4.5,3.4,4.9-7.4,9.3-14.9,14.5-22.1,3-4.3,7.5-7.4,12-10.1A19.27,19.27,0,0,0,347.2,33.3ZM169.8,35.5a6.47,6.47,0,0,0,2.7,3.4c2.4,1.4,5.4.9,8.1,1.3,7.3.2,14.7.6,22.1.7a39.76,39.76,0,0,0,6.9.1c1.9-.2,3.7.4,5.5.3,4.8.4,9.7.2,14.5.6-.8-1.3-1.4-2.7-2.2-4-1-.7-2.4-.5-3.6-.6-4.6-.3-9.1-.4-13.7-.5-4.4-.3-8.8-.3-13.3-.4-4.4-.3-8.9-.3-13.3-.4-4.7-.4-9.2-.3-13.7-.5Zm263.1,0c-12.3.2-24.5.8-36.8,1.1-5.6.4-11.4.2-17,.6-1.2.1-2.7-.1-3.7.8-.8,1.2-1.4,2.7-2.2,4,4.5-.4,9-.2,13.4-.6a25.41,25.41,0,0,1,3.9-.1c.6.3.4-.6,1.7-.4.8-.3,1.2.6,1.7.2,11.1-.6,22.2-.7,33.3-1.3a6.26,6.26,0,0,0,5.7-4.3ZM180,41.4c-.2,2.3,2.1,3.6,4.2,3.8,3.8.4,7.7-.1,11.5.3,3.8,0,7.7.4,11.5.2a7.51,7.51,0,0,1,.4-3.3c-6.3.1-12.5-.5-18.7-.6C185.9,41.8,182.9,41.5,180,41.4Zm242.8.1c-9.2.3-18.5.7-27.7.9a6.3,6.3,0,0,1,.7,3c-1.4.8,4.2.2,5,.3,2.7-.1,5.5,0,8.2-.2,3.4-.2,7,.2,10.4-.4a3.94,3.94,0,0,0,3.4-3.6ZM213.3,42.7a12.7,12.7,0,0,1,.5,3.4c6.4.1,12.8.2,19.2.4a26.58,26.58,0,0,1-3.5-3.2C224.1,43.2,218.7,42.7,213.3,42.7Zm176.1,0c-5.4,0-10.8.5-16.3.5a17.29,17.29,0,0,1-3.5,3.1c6.5-.2,12.9-.1,19.4-.4a11.7,11.7,0,0,1,.4-3.2ZM197.6,46.9c.2,1.3.7,2.8,2.2,3.2,3.7.8,7.5.1,11.3.7l1.1.2a12.67,12.67,0,0,0-2.7-3.4,79.19,79.19,0,0,0-11.9-.7Zm207.3,0c-3.8.2-7.7.1-11.5.4a7.81,7.81,0,0,0-2.8,3.7l1.4-.3c3.5-.5,7.1,0,10.7-.6a2.86,2.86,0,0,0,2.2-3.2Zm-190.1.4a18.09,18.09,0,0,1,2.8,3.4c7.4,0,14.7.3,22.1.4a34.8,34.8,0,0,1-5.1-3.4c-6.6,0-13.2-.4-19.8-.4Zm168.2,0c-5,.1-9.9.5-14.9.4a45.2,45.2,0,0,1-5.1,3.4c7.2,0,14.5-.4,21.7-.4l.6-.4a17.13,17.13,0,0,1,2-2.7c.2-.1.5-.2.7-.3ZM210.5,51.6l-.5.4c-2.2,0-4.4-.2-6.6-.1.8,2.5,3.5,3.4,5.8,3.7l.2-.1C210.6,54.7,212.9,52.4,210.5,51.6Zm181.3.3a4.85,4.85,0,0,0,0,1.7l1.2.8a5.3,5.3,0,0,1,.6,1c2.4-.3,4.9-1.2,5.8-3.6C396.9,51.7,394.4,52.1,391.8,51.9Zm-12.1.3c-1.4,0-2.9,0-4.3.1-2.9.1-5.8.2-8.6.2-2.4.3-4.8,0-7.2.3a14.25,14.25,0,0,0-2.9,3.1c8.2-.5,16.5-.1,24.8-.4a6.61,6.61,0,0,1,2.6-3.1A33.14,33.14,0,0,0,379.7,52.2Zm-161,0a12.22,12.22,0,0,1,2.7,3.3c8.3.1,16.5.1,24.8.4a16.17,16.17,0,0,0-3.2-3.2c-8.1-.2-16.2-.6-24.3-.5Zm-4.8.8a7,7,0,0,0,.1,2.5c.7,0,1.4-.1,2-.1Zm140.3,4.5a8.68,8.68,0,0,1-3.8,6,56.1,56.1,0,0,0,5.5,4.1,5,5,0,0,0,5-1.5c.8-.8,2.1-1.5,2-2.8-.2-.7-1-1-1.6-1.4C358.9,60.6,356.6,58.9,354.2,57.5Zm-64.8.1a59.25,59.25,0,0,1-3.5,4.8,23.27,23.27,0,0,0,14.2,5.3,17.4,17.4,0,0,0-2.7-6.6c-1.5-2.8-5.2-2.8-8-3.5Zm-40.9.1c-2.2.8-4.1,2.6-6.3,3.7-1,.7-3.2,1.4-2.3,3.1a10.37,10.37,0,0,0,5.7,3.7c2.5-.9,4.5-2.9,6.6-4.6A8.92,8.92,0,0,1,248.5,57.7Zm64.8,0c-2.5.3-5.5.4-7.2,2.5s-2.6,5-3.6,7.6A23.47,23.47,0,0,0,316,63.1q-1.5-2.7-2.7-5.4Zm-60,7c-3.2,2.6-6.7,4.9-9.9,7.5a1.34,1.34,0,0,0,.4,2.1c1.9,1.3,4.1,3.4,6.6,2.8a74.81,74.81,0,0,0,7.5-6.2,4.34,4.34,0,0,1-2.9-1.3C253.7,68.3,253.6,66.4,253.3,64.7Zm95.9.1c.2,2.8-1.4,6-4.6,6.2,2.3,2,4.6,4,7.1,5.8,1.8,1.2,3.8-.3,5.4-1.3.9-.8,2.3-1.3,2.6-2.5-.2-.9-1-1.3-1.6-1.8-3-2.1-5.9-4.4-8.9-6.4Zm-91,7.2c-3,2.6-6.1,5.3-9.1,8a1.93,1.93,0,0,0-.4,2.9,11.64,11.64,0,0,0,5.3,2.4,2.53,2.53,0,0,0,2.5-.8c1.9-2.1,3.6-4.4,5.4-6.6C259.4,77.1,258.3,74.4,258.2,72Zm86.3,0c-.1,2.4-1.2,5.1-3.8,5.8,1.8,2.3,3.6,4.5,5.5,6.7a2.18,2.18,0,0,0,2.5.7,10.14,10.14,0,0,0,5.2-2.5,2,2,0,0,0-.4-2.8C350.5,77.3,347.5,74.7,344.5,72Zm-82.1,7.6c-2.5,3.2-5.3,6.2-7.5,9.6.8,1.4,2.5,1.6,3.8,2.3,1.1.5,2.8,1.2,3.7.1,1.4-2.1,2.7-4.2,4.2-6.3A9.72,9.72,0,0,1,262.4,79.6Zm77.9,0a10.5,10.5,0,0,1-4.2,5.7c1.5,2.2,2.8,4.6,4.4,6.7,1.6.8,3.2-.5,4.7-1,1-.5,2.7-.9,2.2-2.3-2.2-3.2-4.8-6.1-7.1-9.1ZM335.1,86c-.9,2.1-2.9,3.1-4.9,3.9,1.2,2.5,2,5.4,4,7.5,2.2,1.1,4.6-.2,6.8-.8a3.5,3.5,0,0,0-.6-2.6C338.6,91.3,336.8,88.7,335.1,86Zm-67.6.1-5.1,7.8a2.81,2.81,0,0,0-.4,2.8,13.06,13.06,0,0,0,4,1,3,3,0,0,0,3.2-.9,40.23,40.23,0,0,0,3.4-6.9C270.5,89.1,268.5,88.1,267.5,86.1Zm8.3,4.8c-.4,0-1.2.2-1.6.2-1.7,2.8-3.3,5.7-4.9,8.6-.5.9-.9,2.2-.3,3.1a16,16,0,0,0,7.5,1.1c1.2.1,1.4-1.3,1.7-2.1.3-1.3,1.1-2.7.7-4.1a1.06,1.06,0,0,1-.2-.5c-.9-1.7-1.6-3.5-2.3-5.2C276.1,91.6,276,91.2,275.8,90.9Zm51,0c-1,2.4-2,4.8-3.2,7.2l.1.5c.5,1.8.7,3.7,1.9,5.1a16.4,16.4,0,0,0,7.6-.8c1.3-.4.8-2.1.4-3-1.6-3-3.4-5.9-5-8.9a10.87,10.87,0,0,1-1.8-.1Zm-47.3,12.3a3.22,3.22,0,0,0-.3,3.4,2.91,2.91,0,0,0,2.5-.9A16.42,16.42,0,0,0,279.5,103.2Zm44,.3-.9.1c-.5.7-1.1,1.4-1.7,2.1a3,3,0,0,0,2.7.8,5.16,5.16,0,0,0-.1-3Zm-41.7,3.2c-.5,1-1.2,2.4-.2,3.4.9.6,1.7-.4,2.3-1Zm39.1,0c-.7.8-1.5,1.6-2.2,2.5.6.4,1.5,1.6,2.3.8C322.1,109.1,321.3,107.7,320.9,106.7Zm-42.3,1.5c-.9,1.2-1.3,3,.2,4a11,11,0,0,0,2.1-1.4c-.8-.9-1.6-1.7-2.3-2.6Zm45.8.3c-1.2,0-1.7,1.6-2.5,2.3a7.43,7.43,0,0,0,2.1,1.3C325.2,111.3,325,109.7,324.4,108.5Zm-40,1.6c-.9.6-.6,1.7-.7,2.5a2.24,2.24,0,0,0,2.2-.7Zm33.9,0c-.5.6-1,1.2-1.6,1.8.7.7,1.6,1.2,2.4.4A3,3,0,0,0,318.3,110.1Zm2.9,1.5c-.6.7-1.2,1.5-1.8,2.2a14,14,0,0,1,1.6,1c.2-.1.7-.3.9-.4a3.83,3.83,0,0,0-.7-2.8Zm-40,.1c-.5,1-.7,2.7.6,3.2a9.06,9.06,0,0,1,1.6-1.1C282.7,113.1,282.2,111.9,281.2,111.7Zm-3.9.6c-.5,1.1-1.2,2.9.1,3.7a2,2,0,0,0,2.1-1.3A16,16,0,0,0,277.3,112.3Zm48,.1a9.15,9.15,0,0,0-2.3,2.5c.6,1,2.2,1.7,3,.5A5.32,5.32,0,0,0,325.3,112.4Zm-39.1.5a12.1,12.1,0,0,0-.1,1.9c.2.1.7.3.9.4l.9-.7A4.36,4.36,0,0,0,286.2,112.9Zm30.1,0c-.5.5-1,.9-1.5,1.4a9.43,9.43,0,0,1,1,1C317,114.9,316.9,113.8,316.3,112.9Zm-32.8,1.4c-.2.8-.7,1.6-.1,2.3s1.2-.2,1.9-.4A10.9,10.9,0,0,0,283.5,114.3Zm35.3.1a10.92,10.92,0,0,0-1.3,1.7c.5.3,1.1.8,1.8.6C319.6,116.1,319.9,114.5,318.8,114.4Zm-37.5.9a2.79,2.79,0,0,0-.2,2.2l1.6-.5C282.2,116.3,281.7,115.8,281.3,115.3Zm39.9.3c-.4.2-.8,1-1.1,1.3.6.2,1.1.5,1.6.7,0-.4.1-1.1.1-1.4-.2-.7-.4-.8-.6-.6Zm-74.1.2a3.14,3.14,0,0,0-2.1.7,3.15,3.15,0,0,0,.8,3.4c1.3,1,3,.6,4.5.4-3.6,5.2-7.1,10.4-10.6,15.7,1,.9,2,1.7,3,2.6,3.3-4.3,6.9-8.3,10.3-12.5,3.5-.5,7-.9,10.4-1.5a38.63,38.63,0,0,0-12.6-8A9.09,9.09,0,0,0,247.1,115.8Zm108.7,0a15.94,15.94,0,0,0-7.6,2.5,37.68,37.68,0,0,0-8.9,6.3c3.5.6,7,1,10.5,1.5,3.4,4.2,6.8,8.4,10.3,12.5a34.46,34.46,0,0,1,2.8-2.6c-3.5-5.2-7-10.4-10.4-15.6,1.6.1,3.7.5,4.8-1a2.39,2.39,0,0,0-.3-3.6Zm-79.5.6a7.15,7.15,0,0,0-.3,2.5,14.11,14.11,0,0,0,3.9,1.9c1.7.6,3.5,1.6,5.4,1.6.3-.7.6-1.3.9-2-1.4-.4-2.1-2.1-3.7-1.9-1.3.2-2.3-.7-3.3-1.4A6.53,6.53,0,0,1,276.3,116.4Zm50,0a4.1,4.1,0,0,1-2.6.7,4.43,4.43,0,0,1-4.2,1.4,17.91,17.91,0,0,1-2.8,2c.2.7.4,1.3.6,1.9,1.9.1,3.6-.9,5.3-1.5a16.52,16.52,0,0,0,4.2-2.1,5.19,5.19,0,0,0-.5-2.4Zm-9.3.6c-.4.5-.8.9-1.2,1.4a10.62,10.62,0,0,0,1.9.4c-.2-.5.1-1.6-.7-1.8Zm-31.8.1a12.1,12.1,0,0,0-.1,1.9c.6-.2,1.1-.5,1.7-.7C286.3,117.9,286,116.8,285.2,117.1Zm-41.6,1.2c-3.3,4.6-6.4,9.2-9.6,13.8a2,2,0,0,0,.4,2.9c1.3,1.1,3.8,1.9,4.9.1,3.1-4.4,6.1-8.9,9.2-13.3A5,5,0,0,1,243.6,118.3Zm115.5.1c-.6.7-.8,1.7-1.6,2.2a6.2,6.2,0,0,1-3.3,1.1c2.7,4.2,5.6,8.3,8.4,12.5.6.8,1.1,1.8,2.2,2,1.9,0,4-1,4.5-2.9a50,50,0,0,0-3.2-4.8c-2.3-3.4-4.6-6.8-7-10.1ZM307.5,120a18,18,0,0,0-1.9,2l-.1.4q1.5,10.35,3.3,20.7a32.93,32.93,0,0,1,4.4-.5C311.6,135,309.1,127.6,307.5,120Zm-12.1.4c-1.7,7.4-3.9,14.7-5.6,22.1a33.54,33.54,0,0,1,4.4.7c1.4-6.9,2.1-13.8,3.3-20.7C296.8,121.7,296.1,121.1,295.4,120.4Zm-17.6,2.1a18.18,18.18,0,0,1-2.4,4.3c-.7.7,0,1.5.2,2.2.7.3,1.4.6,2,.9.7-.7,1.8-1.2,2.2-2.2.1-1.6.1-3.2.3-4.8C279.2,122.8,278.5,122.6,277.8,122.5Zm47.2,0a7.83,7.83,0,0,0-2.5.7c.6,1.6.2,3.4.5,5a18.11,18.11,0,0,0,2.1,1.8,18.94,18.94,0,0,1,2.1-.9,12.44,12.44,0,0,0,.4-1.6A26.47,26.47,0,0,1,325,122.5Zm-20.2.4c-.6.6-1.1,1.1-1.7,1.6.6,6.3,1.1,12.7,1.6,19,1.1-.1,2.2-.3,3.3-.4-1.1-6.8-2.1-13.5-3.2-20.2Zm-6.8.2c-1,6.6-2.1,13.3-3.1,19.9a11.27,11.27,0,0,0,3.2.5c.4-6.3,1.1-12.5,1.6-18.8a12.88,12.88,0,0,0-1.7-1.6Zm4.4,2a8.74,8.74,0,0,0-1,.8,4.05,4.05,0,0,0-.9-.5c-.6,6.1-1.1,12.1-1.6,18.2h4.9C303.6,137.4,302.9,131.3,302.4,125.1Zm-38.3.7c-3.3.4-6.6,1-10,1.5a36.74,36.74,0,0,0,6.8,4.9C262,130,263,127.9,264.1,125.8Zm75.5.3c.9,1.8,1.9,3.5,2.8,5.3a34,34,0,0,0,5.9-4C345.4,126.9,342.5,126.4,339.6,126.1Zm-86.4,2.3c-4.4,5.2-8.6,10.4-13,15.7a91.54,91.54,0,0,0,26.3,15,95.8,95.8,0,0,0,35.1,6.1,85.75,85.75,0,0,0,19.6-1.9,9.29,9.29,0,0,0,1.3-.4l6.1-1.6a60,60,0,0,0,10.1-3.4A92.26,92.26,0,0,0,362.4,144c-4.4-5.2-8.6-10.4-13-15.7a72.66,72.66,0,0,1-9.4,6.2,1.48,1.48,0,0,0-1,1.3l-1.1-.2c-2.4,1.4-5.1,2.3-7.6,3.6-.2.9-.1,1.9-.7,2.6-1,0-1.6-1-2.3-1.5a83.38,83.38,0,0,1-27.1,4.6c-2.6-.3-5.2-.2-7.8-.7a81.52,81.52,0,0,1-16.9-4c-1.6,1.8-4.1,1.8-6.3,2.2-2.8-.2-5.6-.4-8.4-.7a5.34,5.34,0,0,1-2.5-.5c3.6-.5,7.2.4,10.7.2a16.12,16.12,0,0,1,3.8.1,18.43,18.43,0,0,1-.5-2.5c-2.3-1-4.6-2-6.8-3.1a2.15,2.15,0,0,0-1.9-.2c-.1-1.1-1.2-1.4-1.9-1.9a38.16,38.16,0,0,1-8.5-5.4Zm17.3,0a6.15,6.15,0,0,0-1.4.1c-1,.2-2.3.2-2.8,1.2-.3,1.3,1.1,2.4,2.4,2.2a7.19,7.19,0,0,0,5.6-1.8C273.6,128.6,272,128.4,270.5,128.4Zm62.1,0a13.17,13.17,0,0,0-3.4.4,5,5,0,0,0-.5,1.3,5.29,5.29,0,0,0,3.2,1.7c1.5.1,3.4.4,4.5-1,.2-.7.3-1.6-.5-1.9a12.57,12.57,0,0,0-3.3-.5Zm-50.3,1.2a3.17,3.17,0,0,0-1.6.4c-.9.4-2,1.2-1.5,2.3a5.42,5.42,0,0,0,4.1,1,2.7,2.7,0,0,0,2.2-1C285.9,130.5,284,129.5,282.3,129.6Zm38.1,0a4.22,4.22,0,0,0-3.2,1.3v1.6c1.5,1.1,3.5.8,5.1.3.7-.2,1.6-.9,1.1-1.6A3.53,3.53,0,0,0,320.4,129.6Zm-44.1,1.6a.75.75,0,0,0-.5.1,3.84,3.84,0,0,0-1.6,6c2.7.5,4.2-2.9,3.2-5A1.72,1.72,0,0,0,276.3,131.2Zm49.9.2c-2.6,1.6-.8,6.8,2.4,5.9C330.3,135.3,329,131.1,326.2,131.4Zm-61.7.1a7.85,7.85,0,0,0-.4,3.7,10.44,10.44,0,0,0,2.1-2.6A9.91,9.91,0,0,1,264.5,131.5Zm73.7,0-1.7,1.2a8.81,8.81,0,0,0,2.2,2.5,9.47,9.47,0,0,0-.5-3.7ZM316,132.6a6.1,6.1,0,0,0-.1,4c.4-.9.9-1.9,1.3-2.8A4.56,4.56,0,0,0,316,132.6Zm-29.1.1a2.76,2.76,0,0,0-1.6,1.2,8.25,8.25,0,0,1,1,2.6C287.4,135.5,286.8,133.9,286.9,132.7Zm61.6,1.7a11.15,11.15,0,0,1,7.6,4.8,8.15,8.15,0,0,1,.1,8c-1.1,1.4-3.1,2.7-4.8,1.7-1.8-1.2-2.2-3.4-3.1-5.2a29.77,29.77,0,0,0-2.3,2.7l1.6-.7a7.72,7.72,0,0,0,.2,1.5c-1.6,1.8-2.3,4.5-4.6,5.6-2.4.8-3.3-1.8-4-3.5a5.56,5.56,0,0,0-2.8,2.2c-.2.9-.1,1.9-.3,2.8a4.71,4.71,0,0,1-5.1,3.4c-1.1,0-1.7-1-2.4-1.6-.1.2-.3.5-.4.7l-.1.1c-1.7,2-6.9,3.2-7.2,3.1s-1.1-.1-1.4-.1c2.7-.7,5.7-1.3,7.3-3.7,1.8-2.3,1-5.5,2.8-7.8a5.67,5.67,0,0,1,.8,1.3c-1.4,1.4-1.3,3.5-1.3,5.3a3.23,3.23,0,0,0,2.4,1.3,4.78,4.78,0,0,0,4.2-4.2,19.42,19.42,0,0,1-2.4-.2,1.54,1.54,0,0,1,.1-2.5,26.2,26.2,0,0,1,2.8.1c0-1.1-.1-2.1-.1-3.2.6-.4,1.3-.9,1.9-1.3a18.26,18.26,0,0,0,1.3,1.6c.3-1,1.3-2.2.4-3.3-.6-1.2-2.5-2.2-3.5-1a26.2,26.2,0,0,0,.1,2.8,5.57,5.57,0,0,1-.8-4.2,1.27,1.27,0,0,1,1.5-1,3.81,3.81,0,0,1,3.4,2.5,7.44,7.44,0,0,1-.2,5.1,2.94,2.94,0,0,0,1.4,3.6c1.5.3,2.9-1,3.6-2.2.2-1.2-.1-2.4.1-3.5.8-2.1,3.8-3.1,3.5-5.5a20,20,0,0,1-3.7,2.8c0-1.4.9-2.6,1.6-3.7a4.22,4.22,0,0,0-2.3-1.6l-.3,1.4a13.41,13.41,0,0,1-1.3-4c2,.6,4.1,1.6,4.8,3.7.6-.2,1.3-.9,1.9-.3.9,1.8.2,3.8-.9,5.4a5.68,5.68,0,0,1,2.2-.7c1,.8-.2,1.8-.7,2.5.5.9.9,2.3,2.2,2.2,2.6-.1,4.2-3.1,4-5.4-.1-2.8-2.6-5-5.3-5.4,1,1.7,2.2,3.3,2.6,5.2a6.69,6.69,0,0,1-1.4-1.9c-.9-1.5-2.1-2.7-3.1-4.2-.5-.4-.9-.9-.6-1.5Zm-98,1.4a9.24,9.24,0,0,1,4,.8c-1.1,1.6-2.9.2-4.3-.1A.91.91,0,0,1,250.5,135.8Zm90.9.4a6.72,6.72,0,0,1-2.2,2.8C339.6,138,340.1,136.4,341.4,136.2Zm-68.1,1.3c0,1.1-.1,2.2,0,3.4a6.67,6.67,0,0,0,1.9-2.5A6.63,6.63,0,0,1,273.3,137.5Zm56.2,0a7.84,7.84,0,0,1-2.1.9,15,15,0,0,0,1.9,2.5A18.84,18.84,0,0,0,329.5,137.5Zm-72.2.3c-.4.8-.2,2-1.3,2.1l-.4-.8C256.1,138.7,256.7,138.3,257.3,137.8Zm-7.2,1.3c-1.4,1.6-4.2,1.5-5.1,3.7l.6,1.3c2.8-.2,4.9-3.5,7.8-2.3.1,1.7-2,3.3-.6,4.8,2.8,3.7,7.7,5.3,12.2,5.9,3.3.5,6.5-.7,9.8-.7a3.92,3.92,0,0,0,.4,1.8,12.23,12.23,0,0,0,2.4-1c-.1.4-.3.9-.4,1.3a7.57,7.57,0,0,0,1.5-.1c.8-1.5,1.3-3.3,2.8-4.2,1-.1,1.8.6,2.8.6,1.5-.4.8-2.4.6-3.5-.3.2-.8.7-1.1.9a6.49,6.49,0,0,1,1.5-3.5c1.8,2.5,1.7,7.1-1.8,8.1-1.1-.3-2.4-1.3-3.2.1a18.24,18.24,0,0,0,2.5.7c-1,1.5-2.9,2-4.5,2.5s-4,.2-4.8-1.6c-.3-.7-1.3-.3-1.9-.3a22.35,22.35,0,0,1-16.4-2.5c-1.7-1.1-3.5-2.3-4-4.3-.6-1.4,1-2.6.6-4-2.2.3-3.7,2.2-5.8,2.8a1.6,1.6,0,0,1-2-2c.5-2.7,3.4-4.2,6.1-4.5Zm82.3,1c.7-.2.8.8.6,1.3a5.43,5.43,0,0,1-3,3.3,14.25,14.25,0,0,1,2.2-2.8C332.2,141.3,331.5,140.3,332.4,140.1Zm-53.1,3.1a5.7,5.7,0,0,1,1.3.1,18.43,18.43,0,0,1-5.2,1,19,19,0,0,1,3.9-1.1Zm-.7,1.6c.6.3,1.1.5,1.7.8a1.52,1.52,0,0,1-2.4.7c-.7-.6.4-1.1.7-1.5Zm39,.2c-.2,1.5-1.7,1.9-2.8,2.6-2.2,1-4.3,2.7-6.9,2.7,1.4-1.2,3.2-1.6,4.8-2.5S316,145.9,317.6,145Zm-51.3.2c.3,0,.8.6,1,.7a2.92,2.92,0,0,1,1.6.1l.6-.6c0,.5.1.9.1,1.4-1.2-.1-3.9.6-3.5-1.4C266.2,145.3,266.2,145.2,266.3,145.2Zm22.3.9c1.2,2.2,2.5,4.5,2.3,7,.1,3.1-1.4,6.8-4.6,7.8-1.9.8-4.5-.3-4.8-2.3a7.89,7.89,0,0,1,.6-3.4c.1,1.2-.2,3,1.2,3.7,2.5,1.3,5.7-.5,6.4-3.1a8.32,8.32,0,0,0-.7-6c-1,1.2-.2,3.1-1,4.4-.5-2.2-.2-4.4-.2-6.6-.2-.6.3-1.1.8-1.5Zm34.3,2.3h.3a.76.76,0,0,1,.5.2,7.06,7.06,0,0,1-1.2,7.1c-3,3.9-8.2,5.4-13,6a17.78,17.78,0,0,1-6.9-.4c-2.2-.6-4.4-2.2-4.5-4.7-.4,0-.8-.1-1.2-.1-.9,1.6-1.7,3.3-2.6,4.9a12.1,12.1,0,0,1-1.9.1c-2.2-2.1.1-5.1,1.9-6.6,0,1.7-2,2.8-1.7,4.5l.8.4c1.8-1.4,1.9-3.9,3.6-5.4.4-.1,1.2-.2,1.6-.3.4,1.4.5,3,1.8,3.9,2.4,1.8,5.7,1.9,8.6,1.7,3.8-.4,7.8-1.3,10.9-3.6a9.67,9.67,0,0,0,3.6-4.4,1,1,0,0,0-1.2-1.3C322.2,149.7,322.2,148.6,322.9,148.4Zm-18.4.7v2c-.5,0-.9-.1-1.4-.1C303.4,150.3,303.6,149.3,304.5,149.1Zm12,.2c1.1,1.5-1.2,2.3-2.4,2.6-.5-.3-1.4-.5-1-1.3.7,0,1.4,0,1.8-.7a2.27,2.27,0,0,0,1.6-.6Zm-17,.5c-.2.6-.4,1.1-.6,1.7a10.75,10.75,0,0,1-4,.5v-1.3c1.6-.3,3.1-.7,4.6-.9Zm-34.4,5.9a7.59,7.59,0,0,1,3.7.5c-1,1.7-4,1.2-5-.4A5.7,5.7,0,0,1,265.1,155.7Zm12.4,1.8a7,7,0,0,1,2.5.5c-1,1.7-3.5,1.4-4.8.2a4.45,4.45,0,0,1,2.3-.7Zm39.9,4c-.2,2.4-3.5,2.6-5.4,2.7.1-.6.4-1.4,1.2-1.5a25.76,25.76,0,0,1,4.2-1.2Z" transform="translate(11.32 8.01)"/><path id="path115" class="cls-6" d="M337.1,147.3C338.5,146.6,337.2,148.8,337.1,147.3Z" transform="translate(11.32 8.01)"/><path id="path117" class="cls-7" d="M227.5,87.2c.1.7-13.6,22.8-13.7,35.4-1.6,13.1,6.9,24.6,17.9,30.1,4.3,2.1,9,3.2,13.7,4.3-6.8,1.3-20.5-1.5-21-1.5-9.6-2.9-18.3-10.2-23.6-17.9-9.4-19.4-1.8-37.8-1.2-38.7,3-9.4,10.6-18.3,16.3-26.8A53.54,53.54,0,0,0,227.5,87.2Zm174.2,42.1c-3.5,11.3-11.9,19.3-11.9,19.3-10.3,9.1-26,12.9-38.5,9.4,14.5-1.8,30.4-8.2,35.4-23.3,4.6-17.2-4.3-33.2-12.4-47.4a61.9,61.9,0,0,0,10.2-12.6c16.5,20.5,20.7,43.2,17.2,54.6Z" transform="translate(11.32 8.01)"/><path id="path119" class="cls-8" d="M245.5,157c-6.8,1.3-20.5-1.5-21-1.5-9.6-2.9-18.3-10.2-23.6-17.9-9.4-19.4-1.8-37.8-1.2-38.7,3-9.4,10.6-18.3,16.3-26.8,0,0-2-7.1-3-10.7s-1-9.6-1.2-9.4c-4.3,3.1-9.5,7.4-10.9,9.4-2.1,2.7-7.7,10.2-7.7,10.2-41.6,62.6,8.7,95.5,44.1,91.7,7.8-.8,9.3-1.9,20.5-5.5l-12.3-.8Zm105.8.9c12.5,3.6,28.2-.2,38.5-9.4a49.49,49.49,0,0,0,11.9-19.3c3.5-11.3-.7-34-17.1-54.7,0,0,3.6-7,4.6-10.6,1.5-5.6,2.2-9.2,2.2-9.2s5.2,3.2,5.3,3.3a50,50,0,0,1,8.3,9.3c48.6,69.3-21.5,101.4-38.3,98.1-10.3-1.3-14.7-3.5-22.4-7.7l7,.2Z" transform="translate(11.32 8.01)"/><path id="path121" class="cls-7" d="M335.3,134.7l-3.9,1.8a3.22,3.22,0,0,1-.7-2.5,20.62,20.62,0,0,0,4.3-.1l.3.8Zm-63.4,1.8-4.3-1.7c.9-1.6,3.2,0,4.8-.8l-.5,2.5Zm52.9,2.3-3.3.9c.1-.9,1.5-1.9,2.3-2.9,0,.6,1.1,1.1,1,2Zm-43.1.9-3.3-.8c-.3-.6.6-1.3.6-2a10.31,10.31,0,0,1,2.7,2.8ZM393.4,43.6c.1.8,0,1.5-.9,1.7a1.34,1.34,0,0,1-1.4-.8,1.49,1.49,0,0,1,.7-1.5c.8-.3,1.1.2,1.6.6ZM211.5,44.9c-.3.9-1.3.4-1.9.3-.1-.6-.5-.9-.4-1.5.8-1.4,3.4-.5,2.3,1.2Zm117,27c-1.5,20-11.7,38.8-27.2,51.5a78,78,0,0,1-27.2-51.2,95.63,95.63,0,0,1,10.7-7.8c7.5,5.4,18.7,7.1,27.4,3,2-1.1,3.9-2.1,5.8-3.2l10.5,7.7Z" transform="translate(11.32 8.01)"/><path id="path123" class="cls-9" d="M276.3,73.4l9-6.6c4.5,4.1,9.7,4.9,15.6,4.5,6,.4,11.4-.6,16-4.7,2.6,2,6.2,4,8.9,5.9a52.86,52.86,0,0,1-3.1,16.2c-.5,1.5-1.1,2.9-1.6,4.4l-1.4.3c-.2-.9,0-2-.9-2.7a3,3,0,0,0-4.2.4,16.55,16.55,0,0,0-.6,2.1l-1.2.1a9.16,9.16,0,0,0,1.5-7.7c3.8-1.5,5.6-5.4,6.8-8.9-2.3,1.1-4.8,1.3-7.3,1.8a29,29,0,0,0,.9-8.3c-2.1,1.6-4.6,2.7-6.7,4.4a9,9,0,0,0-2.8,4.8c-.1.2-.2.7-.3,1-.6-.1-1.2-.3-1.7-.4a10.88,10.88,0,0,0-2.9-3.5c-1.7-1.3-4-1.4-5.9-2.2a11.38,11.38,0,0,1-4.7-3.1,25.71,25.71,0,0,0,1.2,5.5,10.47,10.47,0,0,1-5.5-1.1c.6,2.6,2.1,5,3.3,7.4a24.35,24.35,0,0,0-5.9,1.5,15.09,15.09,0,0,1,4.3,3.2c1.6,1.5,3.9,1.5,5.9,2a10.59,10.59,0,0,0-1,1.2,18.29,18.29,0,0,0-.6,2.5h-2c-.2-.8-.1-1.9-.7-2.5a2.93,2.93,0,0,0-4,.1c-.7.6-.6,1.7-.8,2.5-1,0-2.1,0-3.1-.1-.5-1.8-1.2-3.4-1.8-5.1-1.4-5.3-2.5-9.6-2.7-14.9Z" transform="translate(11.32 8.01)"/><g id="g133"><path id="path125" class="cls-10" d="M308.3,74.5c2-1.7,4.5-2.8,6.7-4.4a29,29,0,0,1-.9,8.3,37.09,37.09,0,0,0,7.3-1.8c-1.2,3.6-3.1,7.5-6.8,8.9a9.91,9.91,0,0,1-1.5,7.7c-.2-.6-.3-1.3-.5-1.9.7-.9,1.5-1.9,1.3-3.1-.4-1.5-1.4-2.7-1.9-4.1.8-.8,1.6-1.5,2.4-2.3a23.13,23.13,0,0,0-2,2.4c.6,1.4,2.3.6,3.2.1,2.2-1.6,3.5-4,4.7-6.3-1.4.3-2.8.5-4.1.8a7.63,7.63,0,0,0-5.7,4.6c0-.4-.1-.8-.1-1.2,2.9-2.5,3.4-6.5,4-10-2,1.2-4.3,2-5.8,3.8a11.31,11.31,0,0,0-2,4.3c-.3.1-.8.2-1,.3l.2-1.2a7.11,7.11,0,0,1,2.5-4.9ZM290.1,71a11.38,11.38,0,0,0,4.7,3.1c1.9.8,4.2.9,5.9,2.2a12.33,12.33,0,0,1,2.9,3.5c-.3.1-.8.4-1.1.5-.5-1.3-1-2.9-2.4-3.5-2.5-.9-5.1-1.5-7.5-2.6a14.62,14.62,0,0,0,4.5,7.4l-.1.2a34,34,0,0,1-3.8-4.7,30.82,30.82,0,0,1-6.1-.3,9.49,9.49,0,0,0,8.5,7.3c-.2.3-.5.6-.7.9-2.6-2.4-6.5-1.6-9.7-1,2.4,1.8,4.7,4.4,8,4.1v.7a4.7,4.7,0,0,0,.9.6,17.39,17.39,0,0,1-1.8,1.1l1-1.2c-2-.5-4.3-.6-5.9-2a17.21,17.21,0,0,0-4.3-3.2,24.35,24.35,0,0,1,5.9-1.5c-1.2-2.4-2.7-4.7-3.3-7.4a10.47,10.47,0,0,0,5.5,1.1,22.67,22.67,0,0,1-1.1-5.3Z" transform="translate(11.32 8.01)"/><path id="path127" class="cls-10" d="M297.8,79.4c.2-.9,1.3,0,1.3.6A7.54,7.54,0,0,1,297.8,79.4Z" transform="translate(11.32 8.01)"/><path id="path129" class="cls-10" d="M299.1,80c.1,0,.2.1.3.1-.1,0-.2-.1-.3-.1Zm.3.1.2.1-.2-.1Zm-5.9,1.2c.7-.4,1.1.5,1.2,1C294.2,82.2,293.2,82,293.5,81.3Zm1.2,1c.6-.1,1.6.1,1.6.9A1.47,1.47,0,0,1,294.7,82.3ZM291.1,86c.7-.1,1.7.2,1.9.9A1.53,1.53,0,0,1,291.1,86Z" transform="translate(11.32 8.01)"/><path id="path131" class="cls-10" d="M293,86.9h.1v.3c0-.1-.1-.2-.1-.3Zm3.7,3.8a4.29,4.29,0,0,1,2.5.4c-.2.7-.4,1.4-.6,2-.4,0-1.1-.1-1.5-.1a10.11,10.11,0,0,0-.4-2.3Z" transform="translate(11.32 8.01)"/></g><g id="g141"><path id="path135" class="cls-11" d="M308.4,75.9c1.5-1.8,3.8-2.6,5.8-3.8-.6,3.5-1.1,7.5-4,10a19.23,19.23,0,0,0-1.3-1.7,1.91,1.91,0,0,0,.6-1.6,1,1,0,0,0-.8,1.4,17.65,17.65,0,0,0-2.3,0,9,9,0,0,1,2-4.3Zm-15.8-1.6c2.4,1.1,5,1.7,7.5,2.6,1.5.6,1.9,2.2,2.4,3.5l-1,.5-1.9-.7c-.1,0-.1,0-.2-.1s-.2-.1-.3-.1c0-.6-1.1-1.5-1.3-.6.3.2,1,.4,1.3.6.1,0,.2.1.3.1h.1a9.13,9.13,0,0,0-2.3,1.5,13.88,13.88,0,0,1-4.6-7.3Z" transform="translate(11.32 8.01)"/><path id="path137" class="cls-11" d="M287.1,76.9a41.67,41.67,0,0,0,6.1.4A28,28,0,0,0,297,82a14.8,14.8,0,0,0-.8,1.3c.1-.8-.9-1-1.6-.9-.1-.5-.5-1.5-1.2-1-.3.7.7,1,1.2,1,.3.5.9,1.1,1.6.9l-.7,1a9.7,9.7,0,0,1-8.4-7.4Zm28.8,1.8c1.4-.3,2.8-.5,4.1-.8a18.28,18.28,0,0,1-4.7,6.3c-.9.5-2.6,1.3-3.2-.1.6-.8,1.3-1.6,2-2.4-.8.8-1.6,1.5-2.4,2.3a8,8,0,0,0-1.6-.8C311.3,81.1,313.4,79,315.9,78.7Z" transform="translate(11.32 8.01)"/><path id="path139" class="cls-11" d="M285.2,84.1c3.2-.6,7.1-1.4,9.7,1-.5.6-1.1,1.2-1.7,1.8h-.1a1.53,1.53,0,0,0-1.9-.9,1.53,1.53,0,0,0,1.9.9l.1.2c0,.3.1.8.1,1-3.4.4-5.7-2.2-8.1-4Z" transform="translate(11.32 8.01)"/></g><path id="path143" class="cls-12" d="M308.6,80.3a1,1,0,0,1,.8-1.4,1.91,1.91,0,0,1-.6,1.6l-.2-.2Z" transform="translate(11.32 8.01)"/><path id="path145" class="cls-13" d="M286,90.7c.7,0,1.4-.1,2.1-.1,1,.7,1,1.9,1.1,3h3a6.87,6.87,0,0,1,.5-2.4,2.4,2.4,0,0,1,3.9.4,13.55,13.55,0,0,1,.2,2h2.6c.1-.7.1-1.4.2-2.1.8-.8,2.1-1.5,3.2-.8,1.2.5,1,1.9,1.1,3h3.9c0-1.4.4-3.3,2.2-3.2,1.8-.2,2.4,1.8,2.2,3.2a24.37,24.37,0,0,0,2.7-.1,4.94,4.94,0,0,1,.5-2.4c.5-.8,1.7-.4,2.5-.5a8.74,8.74,0,0,1,.8,1c-.1,1-.1,2.8,1.5,2.4-1.3,1-.9,3.7-3,3.3-11.1.2-22.2.2-33.2-.1-.3-.9-.6-1.8-1-2.7l-.7-.4c1,0,1.9-.1,2.9-.1V91.7C285.4,91.4,285.7,91.1,286,90.7Z" transform="translate(11.32 8.01)"/><path id="path147" class="cls-14" d="M304.2,92a1.22,1.22,0,0,1,1.3,1.1c-.3-.1-.9-.2-1.2-.3l-.1-.8Z" transform="translate(11.32 8.01)"/><g id="g161"><path id="path149" class="cls-15" d="M293.1,100.1c1.6.2,1.8-1.6,3.4-1.5,1.3,0,2.1,1.3,3.4,1.5,1.4-.1,2.3-1.9,3.9-1.5a26.39,26.39,0,0,1,2.9,1.5c1,.1,2.3-1,3.1-1.5,3.1,1.5,3.6,2.6,6.2-.2.4,0,1.4.6,1.8.6-1.5.3-3.1,1.9-4.4,2.4-1.4-.2-1.7-1.3-3.2-1.7a16.41,16.41,0,0,1-2.9,1.6c-1.5-.1-2.4-1.5-3.8-1.7a27.55,27.55,0,0,1-2.9,1.7c-1.5.1-2.5-1.3-3.8-1.7-1.3.2-2.2,1.7-3.6,1.6-3.2-2-3.3-1.9-6.6.6-.1-.1-.6-.8-.7-.8,4.6-3.7,4.8-2.2,7.2-.9Z" transform="translate(11.32 8.01)"/><path id="path151" class="cls-15" d="M286.8,103.7c1-.9,2.1-2.3,3.7-2.2a6.14,6.14,0,0,0,2.6,1.5c1.6,0,1.9-1.7,3.5-1.7a13.82,13.82,0,0,1,3.4,1.8,13.81,13.81,0,0,1,2.9-1.7c1.7-.5,2.8,1.5,4.3,1.5,1.3-.7,2.5-1.7,4.2-1.4,3,1.4,1.6,2.3,5.2-.6-.4.8,0,1.5-.6,2.1-1,0-1.6,1.1-2.5,1.1-.6-.4-1.6-1.3-2.2-1.6-1.8-.5-2.7,1.9-4.5,1.6a21.86,21.86,0,0,1-3-1.6c-1.4.1-2.3,1.7-3.8,1.6-1.3-.2-2.1-1.3-3.4-1.6-1.3.5-1.8,1.9-3.4,1.5-.9.1-1.9-1-2.4-1.5-1.1,0-1.5,0-3.2,1.7-.1-.1-.6-.4-.7-.5Z" transform="translate(11.32 8.01)"/><path id="path153" class="cls-15" d="M287.8,104.9a12.09,12.09,0,0,0,2.5-.8c1.2-.1,2,1.1,3.3,1.6.9-.6,1.7-1.6,2.9-1.6,1.4.1,2.2,1.3,3.5,1.6,1.3-.3,2.2-1.8,3.7-1.6a22.85,22.85,0,0,1,3.1,1.6c1.4,0,2.2-1.6,3.6-1.5,1.4.4,2.4,1.5,3.6,2.4-.2.2-.3.4-.5.6-.8-.1-2.2-1.3-3.1-1.7-1.6-.5-1.6,1.5-3.1,1.5-1.4.2-2.3-1.1-3.5-1.5-1.3-.1-2.1,1.4-3.3,1.5-1.4.2-2.3-1-3.5-1.4s-2.1,1.4-3.3,1.6c-3.1-1.2-2.6-2.3-5-1.1a12.49,12.49,0,0,1-.9-1.2Z" transform="translate(11.32 8.01)"/><path id="path155" class="cls-15" d="M309.8,107.2c1-.2,1.9.6,2.8.9-.1.1-.2.3-.4.4a23.48,23.48,0,0,0-2.6-.1c-.7.6-1.4,1.5-2.4,1.5-1.5.2-2.4-1.4-3.8-1.5-1.2.3-2.1,1.7-3.5,1.5-1.5,0-2.3-1.8-3.8-1.4-1.3.7-2.5,1.6-4.1,1.5a6.93,6.93,0,0,1-2-2.5,5.93,5.93,0,0,1,2.7,1.7c1.5-.6,2.6-2.2,4.3-1.9,1.1.2,1.9,1.2,3,1.4,1.3-.1,2-1.5,3.3-1.5,1.5-.2,2.4,1.4,3.8,1.5,1-.4,1.8-1.1,2.7-1.5Z" transform="translate(11.32 8.01)"/><path id="path157" class="cls-15" d="M293.6,111.7c.8-.7,1.6-1.8,2.9-1.8,1.5,0,2.4,1.6,3.9,1.4.8-.4,1.6-1,2.4-1.4,1.8-.5,2.8,1.4,4.4,1.5,1.2-.6,2.2-1.5,3.7-1.3a12.56,12.56,0,0,1-2.2,2.4c-1,0-2.1.4-3-.2-.8-.4-1.5-1.2-2.4-1.2-1.2.5-2.3,2-3.8,1.5-1-.5-1.9-1.1-3-1.6a12.56,12.56,0,0,0-2.3,1.3,1.7,1.7,0,0,1-.6-.6Z" transform="translate(11.32 8.01)"/><path id="path159" class="cls-15" d="M295.1,113.4c1.7-1.4,3.3.3,4.8,1,1.3-.2,2.1-1.5,3.4-1.6,1.4.1,2.4,1.1,3.5,1.7l-.8.8c-.9-.4-1.7-1.3-2.8-1.2-1.3.4-2.3,1.9-3.8,1.4a12.78,12.78,0,0,0-3.8-1.6c-.1-.2-.3-.3-.5-.5ZM302,116c.9-.8,2.1-.2,3.2.1a5.5,5.5,0,0,1-.9.7,7.73,7.73,0,0,0-3.8,1.7c-.5-.5-1.1-.9-1.6-1.4C300.1,117.4,301.1,116.7,302,116Z" transform="translate(11.32 8.01)"/></g><path id="path163" class="cls-16" d="M285,90.7a3.16,3.16,0,0,1,4-.1c.7.6.5,1.7.7,2.5h2a11.36,11.36,0,0,1,.6-2.5,17.39,17.39,0,0,1,1.8-1.1l.2.2c.5.3,1.1.5,1.7.8l.7.2c.2.8.3,1.6.5,2.4.4,0,1.1.1,1.5.1.2-.7.4-1.4.6-2a.76.76,0,0,0,.2-.4,5.09,5.09,0,0,1,3.4-.8,12,12,0,0,1,1.3,2.1l.2.8c.3.1.9.2,1.2.3l1.7-.1a8.13,8.13,0,0,1,1.2-2.9l.7-.4a15.83,15.83,0,0,1,3.1.9l.2.6c.2.6.3,1.3.5,1.9l1.2-.1a16.55,16.55,0,0,1,.6-2.1,3,3,0,0,1,4.2-.4c.8.6.6,1.8.9,2.7l1.4-.3a20.29,20.29,0,0,1-2,4.8l-.8.1H283.9l-.6-.1a21.43,21.43,0,0,1-2-4.7c1,0,2.1.1,3.1.1,0-.9-.1-1.9.6-2.5m1,0a9,9,0,0,0-.9,1v2.4c-1,0-1.9.1-2.9.1l.7.4c.3.9.7,1.8,1,2.7,11.1.3,22.2.3,33.2.1,2.1.4,1.7-2.3,3-3.3-1.6.5-1.6-1.3-1.5-2.4a3.92,3.92,0,0,1-.8-1c-.8.1-1.9-.3-2.5.5s-.4,1.6-.5,2.4a24.37,24.37,0,0,0-2.7.1c.3-1.5-.4-3.4-2.2-3.2-1.8-.1-2.2,1.8-2.2,3.2h-3.9c-.1-1,0-2.4-1.1-3s-2.4,0-3.2.8c-.1.7-.1,1.4-.2,2.1h-2.6c-.1-.7-.1-1.4-.2-2a2.4,2.4,0,0,0-3.9-.4,17,17,0,0,0-.5,2.4h-3c-.1-1.1-.2-2.3-1.1-3a12.75,12.75,0,0,1-2,.1Z" transform="translate(11.32 8.01)"/><path id="path165" d="M285.6,65.8A22.43,22.43,0,0,0,301,70.5a22.15,22.15,0,0,0,15.7-4.8c3.4,2.6,6.9,5,10.3,7.6,1.4,16.6-15.6,38.5-25.7,47.4-14.1-11.7-24.3-31.5-26-47.2m1.7.5c1.7,16,11.4,34.2,24.2,45.1,15-13.6,23.5-30.5,24.3-45-2.9-2.2-6.4-4.9-8.9-6.8-6.3,5.6-22.1,7.2-30.8.1-3,1.7-6.6,5.1-8.8,6.6Z" transform="translate(11.32 8.01)"/><g id="g181"><g id="g179"><path id="path167" class="cls-17" d="M293.9,90.2c-.7-.7-1.3-.9-1.1-1.7.2-.6,0-1.5.8-2.3,2.2-2.2,4.2-7.3,7.1-6,.1.1-.2.6,2.2-.4,1-.4,1.4-.9,3.2.5.2.2.5-.7,1.2-.8,1.2-.2,3,.6,3.1,3,0,.8.7,1.1,1.4,1.5,1.3.8,2.8,2.5,2.3,6.4-.1,1-4.2-.4-5.4.2-.5.2-1,2.2-1.1,2.6.1.4-1.6.8-3.5-.8-.8-.7-.6-1.9-1.5-2.1a4.81,4.81,0,0,0-3.1.8,3.23,3.23,0,0,1-2.2,0,18.64,18.64,0,0,0-2.5-.8,2.72,2.72,0,0,1-.9,0Z" transform="translate(11.32 8.01)"/><path id="path169" class="cls-18" d="M298.3,88.1a2.35,2.35,0,0,1,3.3-1.4c1,.4,1.2,1.4,1.4,3.9-1.3-.1-2.8-.9-3.9,0-.7-.9-1.7-1.2-.8-2.5Zm4.7-8c1.3-.6,3.1-.1,3.4,1.3.4,1.1.3,3.2-1.3,3.1a4,4,0,0,0-2.8-1.7c.3-1.3-.8-2.6.7-2.7Z" transform="translate(11.32 8.01)"/><path id="path171" class="cls-18" d="M295.6,85.7c-.6-2.5,1.9-2.7,3-2.3,1.1.2,2.7,1.3,1.9,2.7-1.3.2-2,1.2-2.9,2.2-1-.8-2.3-1.2-2-2.6Zm14-5c.8,1.5.9,2.8.1,3.6s-2.3,1.2-2.9-.3c.6-1.2.2-2.5-.1-3.9A2.53,2.53,0,0,1,309.6,80.7Zm-1.1,5.7c.2,1.7-.1,3.1-1.2,3.5s-3.1.1-3.2-1.5c.9-1,1-2.2,1.2-3.6C306.5,84.9,308,85.2,308.5,86.4Z" transform="translate(11.32 8.01)"/><path id="path173" class="cls-18" d="M303.1,83.3A3.21,3.21,0,0,1,305,86c-.1.8-.9,2.1-1.9,1.5-.2-.9-1.1-1.2-1.9-1.9-1.2-1.9-.2-2.6,1.9-2.3Zm9.5,2.1c.3,1.3.5,1.8-.2,2.2-.6,1-2,2-2.9.9a20,20,0,0,1-.3-2.8c.7-2.1,2.4-2.3,3.4-.3Z" transform="translate(11.32 8.01)"/><path id="path175" class="cls-18" d="M314.3,90.1c-.5.8-1.3,1.5-2.1,1.3-.6.1-.9-.8-1.6-1-.5-.2-1,.3-1-.2.4-.5,1.5-.8,2.1-1.4.8-.3,1.3-1.5,1.7-1.4.8.1,1.2,1.8.9,2.7Zm-6.8,2.5c-.9.2-1.3.4-1.8-.2-1-.4-2.4-1.6-1.9-2.4.6-.1,1.7.3,2.5.3.8.3,1.9-.3,2.2.1s-.3.5-.6,1,0,1-.4,1.2Zm-12.6-2.2c-.7-.7-1.6-1.4-1.5-2.2.2-1.5.5-2.6,1.3-2.5.4.5.8,1.5,1.3,2.2.2.8,1.5,1.7,1.4,2.1-.1.6-1.5.6-2.3.3,0,.1-.1.1-.2.1Zm3.9-10c.8.1,2.4-.3,3.1,1.3.4,1.2-.6,1.6-1.2,2a9.73,9.73,0,0,1-1.9-.8c-.5-.5-1.5.3-1.7,0-.2-.6,1-2.4,1.7-2.5Z" transform="translate(11.32 8.01)"/><path id="path177" class="cls-7" d="M303.7,84.1c.3.2.9.4.8,1.1-.1.5-.5.5-.9.5a6.82,6.82,0,0,1-.5-.7c-.1-.3-.6-.2-.6-.3S303.4,84,303.7,84.1Zm-2.9-3.4c.2.2.9.5.7,1.2-.2.5-.6.4-.9.4-.1-.2-.3-.5-.4-.7s-.6-.3-.5-.4.8-.6,1.1-.5Zm4.7-.1c.2.2.9.5.7,1.2-.2.5-.6.4-.9.4-.1-.2-.3-.5-.4-.7s-.6-.3-.5-.4C304.4,80.8,305.2,80.4,305.5,80.6Zm3.7,1c.2.2.9.5.7,1.2-.2.5-.6.4-.9.4-.1-.2-.3-.5-.4-.7s-.6-.3-.5-.4.8-.6,1.1-.5Zm-1.6,4c.2.2.9.5.7,1.2-.2.5-.6.4-.9.4-.1-.2-.3-.5-.4-.7s-.6-.3-.5-.4c0-.3.8-.6,1.1-.5Zm2.6-1.1c.3-.1.8-.5,1.4,0,.4.4.1.7-.1,1h-.8c-.3-.1-.5.4-.6.3a1.5,1.5,0,0,1,.1-1.3Zm-9.5,2.2c.3.1,1-.1,1.2.6.1.5-.3.6-.6.8a2.51,2.51,0,0,1-.7-.4c-.2-.2-.6.1-.7-.1s.5-.9.8-.9Zm-1-2.3c.2.2.9.5.7,1.2-.2.5-.6.4-.9.4-.1-.2-.3-.5-.4-.7s-.6-.3-.5-.4c0-.3.8-.6,1.1-.5Z" transform="translate(11.32 8.01)"/></g></g><g id="g217"><path id="path183" class="cls-3" d="M365,194.8a9.1,9.1,0,1,0,18.2,0h0a9.1,9.1,0,1,0-18.2,0Z" transform="translate(11.32 8.01)"/><path id="path185" class="cls-3" d="M351.7,200.8a9.1,9.1,0,1,0,9.1-9.1A9.13,9.13,0,0,0,351.7,200.8Z" transform="translate(11.32 8.01)"/><path id="path187" class="cls-3" d="M343.8,211.2a9.1,9.1,0,1,0,9.1-9.1A9.13,9.13,0,0,0,343.8,211.2Z" transform="translate(11.32 8.01)"/><path id="path189" class="cls-3" d="M329.5,217.9a9.1,9.1,0,1,0,18.2,0h0a9.1,9.1,0,1,0-18.2,0Z" transform="translate(11.32 8.01)"/><path id="path191" class="cls-3" d="M315.2,227.2a9.1,9.1,0,1,0,9.1-9.1A9.13,9.13,0,0,0,315.2,227.2Z" transform="translate(11.32 8.01)"/><path id="path193" class="cls-3" d="M304.4,235.7a9.1,9.1,0,1,0,9.1-9.1A9.13,9.13,0,0,0,304.4,235.7Z" transform="translate(11.32 8.01)"/><path id="path195" class="cls-3" d="M296.7,245.4a9.1,9.1,0,1,0,9.1-9.1A9.13,9.13,0,0,0,296.7,245.4ZM458,364.1a9.1,9.1,0,1,0,9.1-9.1A9.13,9.13,0,0,0,458,364.1Z" transform="translate(11.32 8.01)"/><path id="path197" class="cls-3" d="M443.1,371.4a9.1,9.1,0,0,0,18.2,0h0a9.1,9.1,0,0,0-18.2,0Z" transform="translate(11.32 8.01)"/><path id="path199" class="cls-3" d="M427,373.6a9.1,9.1,0,1,0,9.1-9.1A9.13,9.13,0,0,0,427,373.6Z" transform="translate(11.32 8.01)"/><path id="path201" class="cls-4" d="M409.6,376a9.1,9.1,0,1,0,9.1-9.1A9.13,9.13,0,0,0,409.6,376Z" transform="translate(11.32 8.01)"/><path id="path203" class="cls-3" d="M392,377.2a9.1,9.1,0,1,0,9.1-9.1A9.13,9.13,0,0,0,392,377.2Zm-18.7-.3a9.1,9.1,0,1,0,9.1-9.1A9.13,9.13,0,0,0,373.3,376.9Z" transform="translate(11.32 8.01)"/><path id="path205" class="cls-3" d="M357.8,376.5a9.1,9.1,0,1,0,9.1-9.1A9.13,9.13,0,0,0,357.8,376.5Z" transform="translate(11.32 8.01)"/><path id="path207" class="cls-3" d="M342.3,374.4a9.1,9.1,0,1,0,9.1-9.1A9.13,9.13,0,0,0,342.3,374.4Z" transform="translate(11.32 8.01)"/><path id="path209" class="cls-3" d="M328.9,365.1a9.1,9.1,0,1,0,18.2,0h0a9.1,9.1,0,0,0-18.2,0Z" transform="translate(11.32 8.01)"/><path id="path211" class="cls-3" d="M314.7,356.2a9.1,9.1,0,1,0,9.1-9.1A9.13,9.13,0,0,0,314.7,356.2Z" transform="translate(11.32 8.01)"/><path id="path213" class="cls-3" d="M305.4,344.5a7.9,7.9,0,1,0,15.8,0h0a7.9,7.9,0,1,0-15.8,0Z" transform="translate(11.32 8.01)"/><path id="path215" class="cls-3" d="M299.3,335.4a7.55,7.55,0,1,0,15.1.1h0a7.51,7.51,0,0,0-7.6-7.5A7.34,7.34,0,0,0,299.3,335.4ZM289.1,298a7.55,7.55,0,1,0,15.1.1h0a7.51,7.51,0,0,0-7.6-7.5A7.41,7.41,0,0,0,289.1,298Z" transform="translate(11.32 8.01)"/></g><path id="path219" class="cls-3" d="M381.7,194.1a9.1,9.1,0,1,0,18.2,0h0a9.1,9.1,0,1,0-18.2,0Z" transform="translate(11.32 8.01)"/><path id="path221" class="cls-19" d="M411.5,220l-11.6,8.4,20.7,24.4-12.8,11.8-18.7-25.8L221.6,365.6c-1.1,8.2-3.3,15.4-2.1,25.5,16.3,21.5,30.7,26.5,43.4,17.2l-6.8-13.5,42.6,2.3-23.9,39.1-3.6-12.5c-41.5,15.3-43.5,1.1-82.1-23.7-9.6-3.1-19.2-1.9-28.9-1.2,2.7-13.1,6.2-27.1,6.4-37.4-15.9-28.9-22.2-54-10.4-71.7l-10.6-10,43.4-7.2-9.4,40.4-11.9-9.8c-7.1,20.9.7,35,19.5,44.1a62.19,62.19,0,0,0,16.4-2.3c91.7-53.5,141.4-90.8,175.1-121.8l-15.3-18,11.5-9.1,15.6,20,11.4-9.7Z" transform="translate(11.32 8.01)"/><path id="path223" class="cls-3" d="M218,197.1a9.1,9.1,0,1,1-9.1-9.1,9.13,9.13,0,0,1,9.1,9.1Z" transform="translate(11.32 8.01)"/><path id="path225" class="cls-20" d="M446.9,199.1a25,25,0,1,1-25-25.3A25.14,25.14,0,0,1,446.9,199.1Z" transform="translate(11.32 8.01)"/><path id="path227" class="cls-19" d="M190.7,220l11.6,8.4-20.7,24.4,12.8,11.8,18.7-25.8L380.6,365.5c1.1,8.2,3.3,15.4,2.1,25.5-16.3,21.5-30.7,26.5-43.4,17.2l6.8-13.5L303.5,397l23.9,39.1,3.6-12.5c41.5,15.3,43.5,1.1,82.1-23.7,9.6-3.1,19.2-1.9,28.9-1.2-2.7-13.1-6.2-27.1-6.4-37.4,15.9-28.9,22.2-54,10.4-71.7l10.6-10-43.4-7.2,9.4,40.4,11.9-9.8c7.1,20.9-.7,35-19.5,44.1a62.19,62.19,0,0,1-16.4-2.3C306.9,291.3,257.2,254,223.5,223l15.3-18-11.5-9.1-15.6,20-11.4-9.7Z" transform="translate(11.32 8.01)"/><g id="g233"><path id="path229" class="cls-21" d="M205.7,201.8a25,25,0,1,1-25-25.3A25.14,25.14,0,0,1,205.7,201.8Z" transform="translate(11.32 8.01)"/><path id="path231" class="cls-22" d="M195.1,202.4a14.21,14.21,0,1,1-14.2-13.7A14,14,0,0,1,195.1,202.4Z" transform="translate(11.32 8.01)"/></g></g><g id="g275"><path id="path239" class="cls-7" d="M531.34,505.54a15.79,15.79,0,0,1-.42,4,33.09,33.09,0,0,1-1.49,5l-1.06-.56a35.29,35.29,0,0,0,.42-5.25c0-1-.1-2.53-.21-4.5s-.32-3.94-.43-5.81c-.21-2.34-.53-4.59-.85-6.94a13,13,0,0,1-.21-2,12.49,12.49,0,0,1,.53-2.63c.43-1.22.85-2.72,1.6-4.5l1.06,8.91c.43,3.37.64,6.28.85,8.71a51.29,51.29,0,0,1,.21,5.53Zm-6.69,7.31h-10V506h7.76l-2.23-17L519,488a15.25,15.25,0,0,1,.32-3,39.75,39.75,0,0,1,1.38-4.5l.85.56a3.77,3.77,0,0,1-.1.84,2.07,2.07,0,0,0,.74,1.6,13.35,13.35,0,0,0,2.13,1.59c-.11,1-.32,2.06-.53,3.09a15.26,15.26,0,0,1-.75,2.72l-.64-.37,2,15.46v6.84Z" transform="translate(11.32 8.01)"/><path id="path241" class="cls-7" d="M513.7,482.77l-2,5.06-2.55-2-1.49,3.94-3.4-2.53,1.91-4.88,2.66,1.88,1.49-4Zm2.23,30.08H502.64V506h3.3a8.5,8.5,0,0,1,1.59.1c1.38.18,2.87.46,4.57.65a8.38,8.38,0,0,1-3.82-2.15,6.16,6.16,0,0,1-1.07-3.94,18.68,18.68,0,0,1,1.28-7c.85-2.06,1.81-3.09,2.87-3.09,1.27,0,2.34,1.5,3.19,4.4a34.62,34.62,0,0,1,1.38,10.59Zm-2.45-10.4a13.62,13.62,0,0,0-1.48-3.37c-.54-.85-1.07-1.22-1.6-1.22a1,1,0,0,0-.64.28,1,1,0,0,0-.32.75,2.83,2.83,0,0,0,1.17,2.06,5.31,5.31,0,0,0,2.87,1.5Z" transform="translate(11.32 8.01)"/><path id="path243" class="cls-7" d="M503.92,511.17a15.44,15.44,0,0,1-2.66,8.52c-1.81,2.82-3.51,4.22-5.21,4.22a6,6,0,0,1-3.3-1.31,53.28,53.28,0,0,1-5.52-5.25L488,516a16,16,0,0,0,3.19,2.43,4.66,4.66,0,0,0,2.34.47,6.07,6.07,0,0,0,3.51-1.31,19.6,19.6,0,0,0,4.25-5.16,8.08,8.08,0,0,1-1.28.19,3.45,3.45,0,0,1-2.87-1.59,7.77,7.77,0,0,1-1.06-4.41,20.48,20.48,0,0,1,1.28-7.21c.95-2.53,1.91-3.75,3.08-3.75,1,0,1.81.94,2.44,2.72a19.61,19.61,0,0,1,1.07,6.56ZM501.68,506c-.31-2.72-1.06-4-2-4-.42,0-.63.19-.85.66a2.7,2.7,0,0,0-.32,1.31,1.79,1.79,0,0,0,.75,1.5,2.83,2.83,0,0,0,1.91.56Zm-15.94-.47a15.77,15.77,0,0,1-.43,4,31.94,31.94,0,0,1-1.49,5l-1.06-.56a35.5,35.5,0,0,0,.43-5.25c0-1-.11-2.53-.22-4.5s-.32-3.94-.42-5.81c-.21-2.34-.53-4.59-.85-6.94a11.86,11.86,0,0,1-.21-2,12.49,12.49,0,0,1,.53-2.63c.42-1.22.85-2.72,1.59-4.5l1.06,8.91c.43,3.37.64,6.28.86,8.71.1,2,.21,3.85.21,5.53Zm-13.18-16.4-2,5.06-2.56-2-1.48,3.94-3.41-2.53,1.92-4.87,2.66,1.87,1.48-4Zm6.37,23.71h-15.2a20.64,20.64,0,0,1-2.87-.09,5.32,5.32,0,0,1-1.59-.56,5.55,5.55,0,0,1-2.45-2.81,11.43,11.43,0,0,1-.95-4.78,11.24,11.24,0,0,1,.1-1.88,10.56,10.56,0,0,1,.32-1.87c.21-.94.43-1.88.64-2.72a22.67,22.67,0,0,1,1.38-3l1.06,1a28.81,28.81,0,0,0-1.06,3.09,8.32,8.32,0,0,0-.32,2.25,5,5,0,0,0,.64,2.53,3.53,3.53,0,0,0,1.7,1.5,6.44,6.44,0,0,0,1.7.38,16,16,0,0,0,2.13.09h13.18a22.53,22.53,0,0,0-.85-2.72,11.08,11.08,0,0,0-1.28-2.43l1.6-5.81a19.45,19.45,0,0,1,1.81,4.87,38.74,38.74,0,0,1,.31,5.72Zm-35.82-7.31a15.77,15.77,0,0,1-.43,4,31.94,31.94,0,0,1-1.49,5l-1.06-.56a35.5,35.5,0,0,0,.43-5.25c0-1-.11-2.53-.22-4.5s-.31-3.94-.42-5.81c-.21-2.34-.53-4.59-.85-6.94a11.86,11.86,0,0,1-.21-2,12.49,12.49,0,0,1,.53-2.63c.42-1.22.85-2.72,1.59-4.5l1.07,8.91c.42,3.37.63,6.28.85,8.71a51.29,51.29,0,0,1,.21,5.53Zm-6.7,7.31h-10V506h7.76l-2.23-17-1.17-1a14.53,14.53,0,0,1,.32-3,36,36,0,0,1,1.38-4.5l.85.56a3.44,3.44,0,0,1-.11.84,2.05,2.05,0,0,0,.75,1.6,13.18,13.18,0,0,0,2.12,1.59,30.24,30.24,0,0,1-.53,3.09,14.5,14.5,0,0,1-.74,2.72l-.64-.37,2,15.46Z" transform="translate(11.32 8.01)"/><path id="path245" class="cls-7" d="M427.69,512.85H416.32V506h9.57a11,11,0,0,0-.75-2.9,23.61,23.61,0,0,0-1.27-2.25l1.48-6a14.2,14.2,0,0,1,1.92,4.5,36.3,36.3,0,0,1,.53,6.93Zm-1.8,5.25-2.24,5.63-4.25-3.19,2.23-5.72Z" transform="translate(11.32 8.01)"/><path id="path247" class="cls-7" d="M417.59,512.85H396.86V506h13a23.26,23.26,0,0,0-4-4.5,5.3,5.3,0,0,0-3.19-1.22,2.23,2.23,0,0,0-.85.1c-.42.09-.74.19-1.17.28a14.13,14.13,0,0,1,2.24-4.69,3.44,3.44,0,0,1,2.76-1.5,3.92,3.92,0,0,1,2.34.85,11.72,11.72,0,0,1,2.45,2.62c.74.94,1.8,2.44,3.08,4.41a12.34,12.34,0,0,0,2.12,2.71,5.92,5.92,0,0,0,2.13,1Z" transform="translate(11.32 8.01)"/><path id="path249" class="cls-7" d="M398.14,513.42a9.64,9.64,0,0,1-1.28,4,20,20,0,0,1-3,4.4c-1.28,1.41-2.34,2.06-3.19,2.06a5.81,5.81,0,0,1-3.4-1.22,44.87,44.87,0,0,1-5-4.31l.74-1.59a14.24,14.24,0,0,0,2.66,2.06,4.12,4.12,0,0,0,4.68-.37,21.62,21.62,0,0,0,3.4-3.66c2-2.44,3-4.4,3-5.72a10.61,10.61,0,0,0-.53-2.62,11.21,11.21,0,0,0-1.6-3.09l1.06-6.75a12.14,12.14,0,0,1,1.92,4,19.46,19.46,0,0,1,.64,5.15v7.6ZM382,512.85H370.61V506h9.56a10.6,10.6,0,0,0-.74-2.9,22.14,22.14,0,0,0-1.28-2.25l1.49-6a14.2,14.2,0,0,1,1.92,4.5,37.15,37.15,0,0,1,.53,6.93v6.56Zm-.21,4.41-2,5.06-2.55-2-1.49,3.94-3.4-2.53,1.91-4.88,2.66,1.88,1.49-4Z" transform="translate(11.32 8.01)"/><path id="path251" class="cls-7" d="M367.63,477.8l-2,4.69-2.55-2-1.49,3.94-3.4-2.54,1.91-4.4,2.66,1.87,1.59-3.84Zm4.25,35.05h-2.34a1.74,1.74,0,0,1-1.17-.37,5.71,5.71,0,0,1-1.8-2.63,27.83,27.83,0,0,1-1.28-7.21c-.85,1.4-1.49,2.43-1.91,3-.64.84-1.28,1.31-1.7,1.31a3.23,3.23,0,0,1-.85-.19l-2.24-.56c-.95-.28-1.49-.47-1.7-.56s-.32-.28-.32-.66a23.24,23.24,0,0,1,1.28-4.31,31.34,31.34,0,0,1,1.81-4.41,15.46,15.46,0,0,1,1.59-1.78,15.76,15.76,0,0,1,1.91-1.68l1-.75a6.1,6.1,0,0,1-.11-1.41,10.86,10.86,0,0,1,.32-2.34,30.7,30.7,0,0,1,1.17-3.56l1.7,15.65a18.68,18.68,0,0,0,1.07,5c.32.56.63.84,1.17.84h2.34Zm-7.12-14.15-.32-3a6.83,6.83,0,0,1-1,.56,20.56,20.56,0,0,0-1.59,1.32c-.32.37-.53.65-.75.93a2,2,0,0,0-.31.85c0,.18.21.37.63.56a6.29,6.29,0,0,0,1.28.19,1.34,1.34,0,0,0,.85-.28,7.1,7.1,0,0,0,1.17-1.13Zm-20,6.84a15.79,15.79,0,0,1-.42,4,33.09,33.09,0,0,1-1.49,5L341.8,514a35.29,35.29,0,0,0,.42-5.25c0-1-.1-2.53-.21-4.5s-.32-3.94-.43-5.81c-.21-2.34-.53-4.59-.85-6.94a13,13,0,0,1-.21-2,12.49,12.49,0,0,1,.53-2.63c.43-1.22.85-2.72,1.6-4.5l1.06,8.91c.43,3.37.64,6.28.85,8.71.11,2,.21,3.85.21,5.53Zm-6.69,7.31h-10V506h7.76l-2.23-17-1.17-1a15.25,15.25,0,0,1,.32-3,37.8,37.8,0,0,1,1.38-4.5l.85.56a3.77,3.77,0,0,1-.1.84,2.07,2.07,0,0,0,.74,1.6,13.35,13.35,0,0,0,2.13,1.59c-.11,1-.32,2.06-.53,3.09a15.26,15.26,0,0,1-.75,2.72l-.64-.37,2,15.46Z" transform="translate(11.32 8.01)"/><path id="path253" class="cls-7" d="M329.36,512.85H318V506h9.57a11,11,0,0,0-.74-2.9,24.33,24.33,0,0,0-1.28-2.25l1.49-6a14,14,0,0,1,1.91,4.5,36.3,36.3,0,0,1,.53,6.93Zm-.32,4.41-2,5.06-2.55-2L323,524.29l-3.4-2.53,1.91-4.88,2.66,1.88,1.49-4Z" transform="translate(11.32 8.01)"/><path id="path255" class="cls-7" d="M319.15,512.85a12.78,12.78,0,0,1-4.46-1,23.42,23.42,0,0,1-4-2.15,5.83,5.83,0,0,1-2.55,2.81,6,6,0,0,1-2,.28h-3.62v-6.84h3.62a5.07,5.07,0,0,0,2.55-.56,3.8,3.8,0,0,0,1.7-2.44,16.06,16.06,0,0,1,2.66-5.25c.95-1.22,1.8-1.78,2.44-1.78s1.38,1.31,2.34,3.84a23,23,0,0,1,1.49,7.5v5.62Zm-3.4-7.59a4,4,0,0,0-.74-1.87c-.53-1-1.07-1.5-1.49-1.5s-.85.75-1.17,2.25a13.79,13.79,0,0,0,1.49.75,7.72,7.72,0,0,0,1.7.75c.1,0,.21-.1.21-.38Z" transform="translate(11.32 8.01)"/><path id="path257" class="cls-7" d="M303.84,485.58l-2.23,5.62-4.25-3.09,2.23-5.62Zm-.1,27.27H292.36V506h9.57a11,11,0,0,0-.74-2.9,24.33,24.33,0,0,0-1.28-2.25l1.49-6a14,14,0,0,1,1.91,4.5,36.3,36.3,0,0,1,.53,6.93Z" transform="translate(11.32 8.01)"/><path id="path259" class="cls-7" d="M293.64,512.85H282.26V506h9.57a10.6,10.6,0,0,0-.74-2.9,24.33,24.33,0,0,0-1.28-2.25l1.49-6a14,14,0,0,1,1.91,4.5,36.3,36.3,0,0,1,.53,6.93Zm-.32,4.41-2,5.06-2.55-2-1.49,3.94-3.4-2.53,1.91-4.88,2.66,1.88,1.49-4Z" transform="translate(11.32 8.01)"/><path id="path261" class="cls-7" d="M279.29,477.8l-2,4.69-2.55-2-1.49,3.94-3.4-2.54,1.91-4.4,2.66,1.87,1.59-3.84Zm4.25,35.05H281.2a1.74,1.74,0,0,1-1.17-.37,5.79,5.79,0,0,1-1.81-2.63,28.31,28.31,0,0,1-1.27-7.21c-.85,1.4-1.49,2.43-1.92,3-.63.84-1.27,1.31-1.7,1.31a3.41,3.41,0,0,1-.85-.19l-2.23-.56a17.66,17.66,0,0,1-1.7-.56c-.21-.1-.32-.28-.32-.66a23.24,23.24,0,0,1,1.28-4.31,33.24,33.24,0,0,1,1.8-4.41,14.81,14.81,0,0,1,1.6-1.78,15,15,0,0,1,1.91-1.68l1-.75a6.1,6.1,0,0,1-.11-1.41,10.86,10.86,0,0,1,.32-2.34,28.88,28.88,0,0,1,1.17-3.56l1.7,15.65a19.21,19.21,0,0,0,1.06,5c.32.56.64.84,1.17.84h2.34Zm-7.12-14.15-.32-3a7.45,7.45,0,0,1-1,.56,20.56,20.56,0,0,0-1.59,1.32c-.32.37-.54.65-.75.93a2.06,2.06,0,0,0-.32.85c0,.18.22.37.64.56a6.29,6.29,0,0,0,1.28.19,1.36,1.36,0,0,0,.85-.28c.21-.19.64-.57,1.17-1.13Zm-18.71,12.47a15.44,15.44,0,0,1-2.66,8.52c-1.81,2.82-3.51,4.22-5.21,4.22a6,6,0,0,1-3.3-1.31,53.28,53.28,0,0,1-5.52-5.25l.74-1.4a16,16,0,0,0,3.19,2.43,4.66,4.66,0,0,0,2.34.47,6.07,6.07,0,0,0,3.51-1.31,19.6,19.6,0,0,0,4.25-5.16,8.08,8.08,0,0,1-1.28.19A3.45,3.45,0,0,1,250.9,511a7.77,7.77,0,0,1-1.06-4.41,20.48,20.48,0,0,1,1.28-7.21c.95-2.53,1.91-3.75,3.08-3.75,1,0,1.81.94,2.44,2.72a19.61,19.61,0,0,1,1.07,6.56ZM255.58,506c-.32-2.72-1.06-4-2-4-.42,0-.64.19-.85.66a2.7,2.7,0,0,0-.32,1.31,1.77,1.77,0,0,0,.75,1.5,2.83,2.83,0,0,0,1.91.56Zm-16-.47a15.79,15.79,0,0,1-.42,4c-.32,1.22-.75,2.91-1.49,5l-1.06-.56a35.29,35.29,0,0,0,.42-5.25c0-1-.1-2.53-.21-4.5s-.32-3.94-.43-5.81c-.21-2.34-.53-4.59-.85-6.94a13,13,0,0,1-.21-2,12.49,12.49,0,0,1,.53-2.63c.43-1.22.85-2.72,1.6-4.5l1.06,8.91c.43,3.37.64,6.28.85,8.71.11,2,.21,3.85.21,5.53Zm-6.69,7.31h-10V506h7.76l-2.23-17-1.17-1a15.25,15.25,0,0,1,.32-3,39.75,39.75,0,0,1,1.38-4.5l.85.56a3.77,3.77,0,0,1-.1.84,2.07,2.07,0,0,0,.74,1.6,13.35,13.35,0,0,0,2.13,1.59c-.11,1-.32,2.06-.53,3.09a15.26,15.26,0,0,1-.75,2.72l-.64-.37,2,15.46Z" transform="translate(11.32 8.01)"/><path id="path263" class="cls-7" d="M224.11,512.85h-8.18a2.2,2.2,0,0,1-1.81-.65,4.06,4.06,0,0,1-.74-2.81,39.48,39.48,0,0,1,.31-5l.64-.1a2.32,2.32,0,0,0,.64,1.32,1.73,1.73,0,0,0,1.17.37h6.27a19,19,0,0,0-1.49-5.9,10.41,10.41,0,0,0-2.33-3.19l1.27-7.78a13.25,13.25,0,0,1,3.3,6.28,37.16,37.16,0,0,1,1,9.37ZM208.7,479.77l-2.13,5.62-4.25-3.09,2.34-5.62Zm2.66,33.08H198.71V506h10.95a21.88,21.88,0,0,0-.11-3.09,9.43,9.43,0,0,0-.64-2.44,6.14,6.14,0,0,1-1.59,2.34,3.2,3.2,0,0,1-2.13.85,3,3,0,0,1-2.44-1.31,5.47,5.47,0,0,1-1-3.38,24.12,24.12,0,0,1,1.27-7q1.44-4.5,2.87-4.5c1.28,0,2.45,1.5,3.62,4.6a26.88,26.88,0,0,1,1.7,9.65ZM207.42,496a8.4,8.4,0,0,0-.85-1.59,1.11,1.11,0,0,0-.85-.47,1.21,1.21,0,0,0-1,.66,2.85,2.85,0,0,0-.42,1.59,1.3,1.3,0,0,0,.32.94,1,1,0,0,0,.85.37,1.16,1.16,0,0,0,.85-.37A4.2,4.2,0,0,0,207.42,496Z" transform="translate(11.32 8.01)"/><path id="path265" class="cls-7" d="M200.09,512.85h-2.55a3.31,3.31,0,0,1-3.09-2.43c-.74-1.78-1.06-4.78-1.06-8.91v-7.12a11.2,11.2,0,0,0-.53-3.75,8.17,8.17,0,0,0-1.06-1.87l1.91-6.28a15.06,15.06,0,0,1,1.49,3.93,28.49,28.49,0,0,1,.53,5.81v5a34.92,34.92,0,0,0,.53,7.22c.32,1.12.74,1.59,1.28,1.59h2.55Zm-8.93,11.91-6.91,5.81-1.81.09c-3.4,0-5.95-1-7.65-3s-2.56-4.87-2.56-8.81a24.21,24.21,0,0,1,.75-6.56,15.73,15.73,0,0,1,2.55-5.62,18.71,18.71,0,0,1-1.59-3.28,10.19,10.19,0,0,1-.75-3.1,21.61,21.61,0,0,1,2.34-8.24,4.21,4.21,0,0,1,1.81-1.69,5.28,5.28,0,0,1,2.66-.66,6.08,6.08,0,0,1,3.72,1.22,9.21,9.21,0,0,1,2.87,3.66,12.88,12.88,0,0,1-2-.1,17.39,17.39,0,0,0-6.06.85c-1.6.56-2.34,1.31-2.34,2.15a3.43,3.43,0,0,0,.85,2.06,11.24,11.24,0,0,0,3.08,2.54,34.64,34.64,0,0,1,3.83-2.07c.85-.37,2.34-.84,4.14-1.5-.31,1.5-.63,2.53-.74,3.19-.32,1-.64,2-1,3a21.13,21.13,0,0,0-8.71,5.06,9.63,9.63,0,0,0-3.19,6.84,6,6,0,0,0,2.76,5.25c2.13,1.41,5.42,2.06,10,2.06h2c.32,0,1-.09,1.81-.19Zm-31.58-19.22a15.79,15.79,0,0,1-.42,4,33.09,33.09,0,0,1-1.49,5l-1.06-.56a35.29,35.29,0,0,0,.42-5.25c0-1-.1-2.53-.21-4.5s-.32-3.94-.43-5.81c-.21-2.34-.53-4.59-.85-6.94a13,13,0,0,1-.21-2,12.49,12.49,0,0,1,.53-2.63c.43-1.22.85-2.72,1.6-4.5l1.06,8.91c.43,3.37.64,6.28.85,8.71.11,2,.21,3.85.21,5.53Zm-6.8,7.31h-10V506h7.76l-2.23-17-1.17-1a15.21,15.21,0,0,1,.31-3,38,38,0,0,1,1.39-4.5l.85.56a3.44,3.44,0,0,1-.11.84,2.05,2.05,0,0,0,.75,1.6,12.74,12.74,0,0,0,2.12,1.59,28.39,28.39,0,0,1-.53,3.09,15.31,15.31,0,0,1-.74,2.72l-.64-.37,2,15.46v6.84Z" transform="translate(11.32 8.01)"/><path id="path267" class="cls-7" d="M144.06,512.85a12,12,0,0,1-3.4-.37,9.83,9.83,0,0,1-2.66-1.31,6.78,6.78,0,0,1-1.91,1.31,8,8,0,0,1-2.45.28h-3a2.4,2.4,0,0,1-1.92-.84,11.12,11.12,0,0,1-1.27-2.91,6.94,6.94,0,0,1-2.23,3,4.09,4.09,0,0,1-2.56.75h-2.55v-6.84h2.55a3.92,3.92,0,0,0,3.19-1.5,9.08,9.08,0,0,0,1.71-5.81l1.16.28a11.24,11.24,0,0,1-.1,1.78v2.25a3.49,3.49,0,0,0,.64,2.15,1.86,1.86,0,0,0,1.48.85H133a4.76,4.76,0,0,0,3.19-.85c.74-.65,1.17-2,1.17-3.84a2.26,2.26,0,0,1,.31-1.12,6.8,6.8,0,0,1,.64-.85l.64-.75a6.66,6.66,0,0,0,.11,1.32v1a27.7,27.7,0,0,1-.32,3.65,6.92,6.92,0,0,0,1.49.75,9.47,9.47,0,0,0,1.8.47,7,7,0,0,0-.42-2.25,6.58,6.58,0,0,1-.43-1.78,2.74,2.74,0,0,1,.11-1,4.83,4.83,0,0,1,.42-.75l1.6-2.91c.32,1,.53,2,.74,2.91a24.92,24.92,0,0,1,.22,3.19Z" transform="translate(11.32 8.01)"/><path id="path269" class="cls-7" d="M121.42,512.85h-2.55a3.32,3.32,0,0,1-3.09-2.43c-.74-1.78-1.06-4.78-1.06-8.91v-7.12a11.2,11.2,0,0,0-.53-3.75,8.17,8.17,0,0,0-1.06-1.87l1.91-6.28a15.06,15.06,0,0,1,1.49,3.93,28.49,28.49,0,0,1,.53,5.81v5a34.92,34.92,0,0,0,.53,7.22c.32,1.12.75,1.59,1.28,1.59h2.55Zm-8.72,0H92V506h13a23.59,23.59,0,0,0-4-4.5,5.3,5.3,0,0,0-3.19-1.22,2.18,2.18,0,0,0-.85.1c-.42.09-.74.19-1.17.28A13.94,13.94,0,0,1,97.93,496a3.44,3.44,0,0,1,2.76-1.5,3.73,3.73,0,0,1,2.34.85,11.48,11.48,0,0,1,2.44,2.62c.75.94,1.81,2.44,3.09,4.41a12.34,12.34,0,0,0,2.12,2.71,6.92,6.92,0,0,0,2.13,1Z" transform="translate(11.32 8.01)"/><path id="path271" class="cls-7" d="M93.25,512.85h-10V506H91l-2.24-17-1.17-1a15.25,15.25,0,0,1,.32-3,39.75,39.75,0,0,1,1.38-4.5l.85.56a3.77,3.77,0,0,1-.1.84,2.07,2.07,0,0,0,.74,1.6,13.35,13.35,0,0,0,2.13,1.59c-.11,1-.32,2.06-.53,3.09a15.26,15.26,0,0,1-.75,2.72l-.63-.37L93,506v6.84Z" transform="translate(11.32 8.01)"/><path id="path273" class="cls-7" d="M84.42,512.85H82.51a3.51,3.51,0,0,0-1.17.1.32.32,0,0,0-.32.28,2.53,2.53,0,0,0,1,.56,1.05,1.05,0,0,1,.64.47,2,2,0,0,1,.1.84,13.36,13.36,0,0,1-.74,4.22,7.09,7.09,0,0,1-1.49,3.09c-.42.57-1.81,1.13-4,1.78a21,21,0,0,1-5.74,1,7.82,7.82,0,0,1-5.53-2,6.73,6.73,0,0,1-2.12-5.06,17.63,17.63,0,0,1,1-5.82,48.55,48.55,0,0,1,4.15-8.52l1.06,1A41.78,41.78,0,0,0,66.56,510a13.05,13.05,0,0,0-.74,3.94,4.71,4.71,0,0,0,1.59,3.93,8.05,8.05,0,0,0,5,1.32,18.66,18.66,0,0,0,4.78-.85c2-.56,3.09-1.12,3.09-1.5,0-.18-.43-.37-1.17-.56a11.65,11.65,0,0,0-2.55-.28c-1.38,0-2-.38-2-1.22a9.73,9.73,0,0,1,.53-2.06,15,15,0,0,1,.74-2.06,6.48,6.48,0,0,1,2.55-3.38A7.08,7.08,0,0,1,82.3,506h2ZM77,527.76l-1.8,2.81-1.92-1.69-1.38,2.06-2.34-1.78,1.7-3,2,1.78,1.38-2.25Z" transform="translate(11.32 8.01)"/></g><ellipse cx="192.08" cy="210.54" rx="13.69" ry="13.21"/><ellipse cx="433.52" cy="207.71" rx="13.69" ry="13.21"/></svg>